<svg width="13" height="13" viewBox="0 0 13 13" fill="none" xmlns="http://www.w3.org/2000/svg">
<path d="M10.1403 6.01536C10.1055 6.05023 10.0642 6.07789 10.0186 6.09676C9.9731 6.11563 9.92431 6.12535 9.87503 6.12535C9.82574 6.12535 9.77695 6.11563 9.73142 6.09676C9.6859 6.07789 9.64454 6.05023 9.60971 6.01536L6.87503 3.28021V10.6251C6.87503 10.7245 6.83552 10.8199 6.76519 10.8902C6.69486 10.9605 6.59948 11.0001 6.50003 11.0001C6.40057 11.0001 6.30519 10.9605 6.23486 10.8902C6.16453 10.8199 6.12503 10.7245 6.12503 10.6251V3.28021L3.39034 6.01536C3.31997 6.08573 3.22454 6.12526 3.12503 6.12526C3.02551 6.12526 2.93008 6.08573 2.85971 6.01536C2.78935 5.945 2.74982 5.84956 2.74982 5.75005C2.74982 5.65054 2.78935 5.5551 2.85971 5.48474L6.23471 2.10974C6.26954 2.07487 6.3109 2.04721 6.35642 2.02834C6.40195 2.00947 6.45074 1.99976 6.50003 1.99976C6.54931 1.99976 6.5981 2.00947 6.64363 2.02834C6.68915 2.04721 6.73051 2.07487 6.76534 2.10974L10.1403 5.48474C10.1752 5.51957 10.2029 5.56092 10.2217 5.60645C10.2406 5.65197 10.2503 5.70077 10.2503 5.75005C10.2503 5.79933 10.2406 5.84813 10.2217 5.89365C10.2029 5.93918 10.1752 5.98054 10.1403 6.01536Z" fill="#61B08D"/>
</svg>
