<svg width="13" height="13" viewBox="0 0 13 13" fill="none" xmlns="http://www.w3.org/2000/svg">
<path d="M2.85966 6.98464C2.89449 6.94977 2.93585 6.92211 2.98137 6.90324C3.0269 6.88437 3.07569 6.87465 3.12498 6.87465C3.17426 6.87465 3.22305 6.88437 3.26858 6.90324C3.3141 6.92211 3.35546 6.94977 3.39029 6.98464L6.12497 9.71979L6.12498 2.37495C6.12498 2.27549 6.16448 2.18011 6.23481 2.10978C6.30514 2.03946 6.40052 1.99995 6.49998 1.99995C6.59943 1.99995 6.69481 2.03946 6.76514 2.10978C6.83547 2.18011 6.87498 2.27549 6.87498 2.37495L6.87498 9.71979L9.60966 6.98464C9.68003 6.91427 9.77546 6.87474 9.87497 6.87474C9.97449 6.87474 10.0699 6.91427 10.1403 6.98464C10.2107 7.055 10.2502 7.15044 10.2502 7.24995C10.2502 7.34946 10.2107 7.4449 10.1403 7.51526L6.76529 10.8903C6.73046 10.9251 6.6891 10.9528 6.64358 10.9717C6.59805 10.9905 6.54926 11.0002 6.49997 11.0002C6.45069 11.0002 6.4019 10.9905 6.35637 10.9717C6.31085 10.9528 6.26949 10.9251 6.23466 10.8903L2.85966 7.51526C2.8248 7.48043 2.79714 7.43908 2.77826 7.39355C2.75939 7.34803 2.74968 7.29923 2.74968 7.24995C2.74968 7.20067 2.75939 7.15187 2.77826 7.10635C2.79714 7.06082 2.8248 7.01946 2.85966 6.98464Z" fill="#C35554"/>
</svg>
