<svg width="20" height="21" viewBox="0 0 20 21" fill="none" xmlns="http://www.w3.org/2000/svg">
<path d="M13.1248 18C13.1248 18.1658 13.0589 18.3247 12.9417 18.4419C12.8245 18.5592 12.6655 18.625 12.4998 18.625H7.49978C7.33402 18.625 7.17505 18.5592 7.05784 18.4419C6.94063 18.3247 6.87478 18.1658 6.87478 18C6.87478 17.8342 6.94063 17.6753 7.05784 17.5581C7.17505 17.4408 7.33402 17.375 7.49978 17.375H12.4998C12.6655 17.375 12.8245 17.4408 12.9417 17.5581C13.0589 17.6753 13.1248 17.8342 13.1248 18ZM17.3318 15.5C17.2234 15.691 17.0659 15.8497 16.8757 15.9595C16.6855 16.0694 16.4694 16.1265 16.2498 16.125H3.74978C3.53004 16.1247 3.31427 16.0665 3.1242 15.9562C2.93413 15.846 2.77649 15.6875 2.66716 15.4969C2.55783 15.3063 2.50068 15.0903 2.50147 14.8705C2.50226 14.6508 2.56096 14.4351 2.67165 14.2453C3.10525 13.4984 3.74978 11.3859 3.74978 8.625C3.74978 6.9674 4.40826 5.37769 5.58036 4.20558C6.75246 3.03348 8.34218 2.375 9.99978 2.375C11.6574 2.375 13.2471 3.03348 14.4192 4.20558C15.5913 5.37769 16.2498 6.9674 16.2498 8.625C16.2498 11.3852 16.8951 13.4984 17.3287 14.2453C17.4405 14.4354 17.4996 14.6518 17.5 14.8723C17.5004 15.0929 17.4421 15.3095 17.331 15.5H17.3318ZM16.2498 14.875C15.6459 13.8383 14.9998 11.4414 14.9998 8.625C14.9998 7.29892 14.473 6.02715 13.5353 5.08947C12.5976 4.15178 11.3259 3.625 9.99978 3.625C8.6737 3.625 7.40193 4.15178 6.46424 5.08947C5.52656 6.02715 4.99978 7.29892 4.99978 8.625C4.99978 11.4422 4.3529 13.8391 3.74978 14.875H16.2498Z" fill="#131313"/>
</svg>
