<svg width="16" height="16" viewBox="0 0 16 16" fill="none" xmlns="http://www.w3.org/2000/svg">
<path fill-rule="evenodd" clip-rule="evenodd" d="M13.6212 0.349506C13.7874 0.249538 13.9859 0.217832 14.1749 0.261042C14.364 0.304253 14.529 0.41902 14.6352 0.581256L15.3777 1.71376C15.4745 1.8617 15.516 2.03909 15.4947 2.2146C15.4734 2.39011 15.3908 2.55246 15.2615 2.67301L15.2592 2.67601L15.2487 2.68576L15.206 2.72551L15.0372 2.88676C14.1035 3.7925 13.1981 4.72695 12.3222 5.68876C10.6745 7.50076 8.71775 9.87226 7.40075 12.1733C7.03325 12.8153 6.1355 12.9533 5.603 12.399L0.739246 7.34551C0.669545 7.27306 0.615121 7.18734 0.579208 7.09344C0.543296 6.99954 0.526628 6.89937 0.530197 6.7989C0.533765 6.69843 0.557496 6.59971 0.599979 6.50859C0.642462 6.41747 0.702831 6.33583 0.777496 6.26851L2.2475 4.94251C2.37668 4.82604 2.54232 4.75809 2.71608 4.75029C2.88984 4.74249 3.0609 4.79533 3.2 4.89976L5.68175 6.76051C9.5585 2.93776 11.7567 1.47076 13.6212 0.349506Z" fill="#101D1C"/>
</svg>
