<svg width="36" height="36" viewBox="0 0 36 36" fill="none" xmlns="http://www.w3.org/2000/svg">
<rect width="36" height="36" rx="4" fill="#D4D8D8"/>
<path d="M23 13.5H21.2675L20.4156 12.2225C20.37 12.1541 20.3082 12.098 20.2357 12.0592C20.1632 12.0204 20.0822 12 20 12H16C15.9178 12 15.8368 12.0204 15.7643 12.0592C15.6918 12.098 15.63 12.1541 15.5844 12.2225L14.7319 13.5H13C12.6022 13.5 12.2206 13.658 11.9393 13.9393C11.658 14.2206 11.5 14.6022 11.5 15V22C11.5 22.3978 11.658 22.7794 11.9393 23.0607C12.2206 23.342 12.6022 23.5 13 23.5H23C23.3978 23.5 23.7794 23.342 24.0607 23.0607C24.342 22.7794 24.5 22.3978 24.5 22V15C24.5 14.6022 24.342 14.2206 24.0607 13.9393C23.7794 13.658 23.3978 13.5 23 13.5ZM23.5 22C23.5 22.1326 23.4473 22.2598 23.3536 22.3536C23.2598 22.4473 23.1326 22.5 23 22.5H13C12.8674 22.5 12.7402 22.4473 12.6464 22.3536C12.5527 22.2598 12.5 22.1326 12.5 22V15C12.5 14.8674 12.5527 14.7402 12.6464 14.6464C12.7402 14.5527 12.8674 14.5 13 14.5H15C15.0823 14.5001 15.1634 14.4798 15.236 14.441C15.3086 14.4021 15.3706 14.346 15.4163 14.2775L16.2675 13H19.7319L20.5837 14.2775C20.6294 14.346 20.6914 14.4021 20.764 14.441C20.8366 14.4798 20.9177 14.5001 21 14.5H23C23.1326 14.5 23.2598 14.5527 23.3536 14.6464C23.4473 14.7402 23.5 14.8674 23.5 15V22ZM18 15.5C17.4561 15.5 16.9244 15.6613 16.4722 15.9635C16.0199 16.2656 15.6675 16.6951 15.4593 17.1976C15.2512 17.7001 15.1967 18.2531 15.3028 18.7865C15.409 19.3199 15.6709 19.8099 16.0555 20.1945C16.4401 20.5791 16.9301 20.8411 17.4635 20.9472C17.9969 21.0533 18.5499 20.9988 19.0524 20.7907C19.5549 20.5825 19.9844 20.2301 20.2865 19.7778C20.5887 19.3256 20.75 18.7939 20.75 18.25C20.7492 17.5209 20.4592 16.8219 19.9436 16.3064C19.4281 15.7908 18.7291 15.5008 18 15.5ZM18 20C17.6539 20 17.3155 19.8974 17.0278 19.7051C16.74 19.5128 16.5157 19.2395 16.3832 18.9197C16.2508 18.5999 16.2161 18.2481 16.2836 17.9086C16.3511 17.5691 16.5178 17.2573 16.7626 17.0126C17.0073 16.7678 17.3191 16.6011 17.6586 16.5336C17.9981 16.4661 18.3499 16.5008 18.6697 16.6332C18.9895 16.7657 19.2628 16.99 19.4551 17.2778C19.6474 17.5655 19.75 17.9039 19.75 18.25C19.75 18.7141 19.5656 19.1592 19.2374 19.4874C18.9092 19.8156 18.4641 20 18 20Z" fill="#131313"/>
</svg>
