<svg width="21" height="20" viewBox="0 0 21 20" fill="none" xmlns="http://www.w3.org/2000/svg">
<path d="M16.125 6.25V8.75C16.125 8.91576 16.0592 9.07473 15.9419 9.19194C15.8247 9.30915 15.6658 9.375 15.5 9.375C15.3342 9.375 15.1753 9.30915 15.0581 9.19194C14.9408 9.07473 14.875 8.91576 14.875 8.75V6.875H13C12.8342 6.875 12.6753 6.80915 12.5581 6.69194C12.4408 6.57473 12.375 6.41576 12.375 6.25C12.375 6.08424 12.4408 5.92527 12.5581 5.80806C12.6753 5.69085 12.8342 5.625 13 5.625H15.5C15.6658 5.625 15.8247 5.69085 15.9419 5.80806C16.0592 5.92527 16.125 6.08424 16.125 6.25ZM8 13.125H6.125V11.25C6.125 11.0842 6.05915 10.9253 5.94194 10.8081C5.82473 10.6908 5.66576 10.625 5.5 10.625C5.33424 10.625 5.17527 10.6908 5.05806 10.8081C4.94085 10.9253 4.875 11.0842 4.875 11.25V13.75C4.875 13.9158 4.94085 14.0747 5.05806 14.1919C5.17527 14.3092 5.33424 14.375 5.5 14.375H8C8.16576 14.375 8.32473 14.3092 8.44194 14.1919C8.55915 14.0747 8.625 13.9158 8.625 13.75C8.625 13.5842 8.55915 13.4253 8.44194 13.3081C8.32473 13.1908 8.16576 13.125 8 13.125ZM18.625 4.375V15.625C18.625 15.9565 18.4933 16.2745 18.2589 16.5089C18.0245 16.7433 17.7065 16.875 17.375 16.875H3.625C3.29348 16.875 2.97554 16.7433 2.74112 16.5089C2.5067 16.2745 2.375 15.9565 2.375 15.625V4.375C2.375 4.04348 2.5067 3.72554 2.74112 3.49112C2.97554 3.2567 3.29348 3.125 3.625 3.125H17.375C17.7065 3.125 18.0245 3.2567 18.2589 3.49112C18.4933 3.72554 18.625 4.04348 18.625 4.375ZM17.375 15.625V4.375H3.625V15.625H17.375Z" fill="white"/>
</svg>
