<svg width="1464" height="4" viewBox="0 0 1464 4" fill="none" xmlns="http://www.w3.org/2000/svg">
<g clip-path="url(#clip0_114014_20811)">
<line x1="7.5" y1="4" x2="7.5" stroke="#FAF9F3"/>
<line x1="15.5" y1="4" x2="15.5" stroke="#FAF9F3"/>
<line x1="23.5" y1="4" x2="23.5" stroke="#FAF9F3"/>
<line x1="31.5" y1="4" x2="31.5" stroke="#FAF9F3"/>
<line x1="39.5" y1="4" x2="39.5" stroke="#FAF9F3"/>
<line x1="47.5" y1="4" x2="47.5" stroke="#FAF9F3"/>
<line x1="55.5" y1="4" x2="55.5" stroke="#FAF9F3"/>
<line x1="63.5" y1="4" x2="63.5" stroke="#FAF9F3"/>
<line x1="71.5" y1="4" x2="71.5" stroke="#FAF9F3"/>
<line x1="79.5" y1="4" x2="79.5" stroke="#FAF9F3"/>
<line x1="87.5" y1="4" x2="87.5" stroke="#FAF9F3"/>
<line x1="95.5" y1="4" x2="95.5" stroke="#FAF9F3"/>
<line x1="103.5" y1="4" x2="103.5" stroke="#FAF9F3"/>
<line x1="111.5" y1="4" x2="111.5" stroke="#FAF9F3"/>
<line x1="119.5" y1="4" x2="119.5" stroke="#FAF9F3"/>
<line x1="127.5" y1="4" x2="127.5" stroke="#FAF9F3"/>
<line x1="135.5" y1="4" x2="135.5" stroke="#FAF9F3"/>
<line x1="143.5" y1="4" x2="143.5" stroke="#FAF9F3"/>
<line x1="151.5" y1="4" x2="151.5" stroke="#FAF9F3"/>
<line x1="159.5" y1="4" x2="159.5" stroke="#FAF9F3"/>
<line x1="167.5" y1="4" x2="167.5" stroke="#FAF9F3"/>
<line x1="175.5" y1="4" x2="175.5" stroke="#FAF9F3"/>
<line x1="183.5" y1="4" x2="183.5" stroke="#FAF9F3"/>
<line x1="191.5" y1="4" x2="191.5" stroke="#FAF9F3"/>
<line x1="199.5" y1="4" x2="199.5" stroke="#FAF9F3"/>
<line x1="207.5" y1="4" x2="207.5" stroke="#FAF9F3"/>
<line x1="215.5" y1="4" x2="215.5" stroke="#FAF9F3"/>
<line x1="223.5" y1="4" x2="223.5" stroke="#FAF9F3"/>
<line x1="231.5" y1="4" x2="231.5" stroke="#FAF9F3"/>
<line x1="239.5" y1="4" x2="239.5" stroke="#FAF9F3"/>
<line x1="247.5" y1="4" x2="247.5" stroke="#FAF9F3"/>
<line x1="255.5" y1="4" x2="255.5" stroke="#FAF9F3"/>
<line x1="263.5" y1="4" x2="263.5" stroke="#FAF9F3"/>
<line x1="271.5" y1="4" x2="271.5" stroke="#FAF9F3"/>
<line x1="279.5" y1="4" x2="279.5" stroke="#FAF9F3"/>
<line x1="287.5" y1="4" x2="287.5" stroke="#FAF9F3"/>
<line x1="295.5" y1="4" x2="295.5" stroke="#FAF9F3"/>
<line x1="303.5" y1="4" x2="303.5" stroke="#FAF9F3"/>
<line x1="311.5" y1="4" x2="311.5" stroke="#FAF9F3"/>
<line x1="319.5" y1="4" x2="319.5" stroke="#FAF9F3"/>
<line x1="327.5" y1="4" x2="327.5" stroke="#FAF9F3"/>
<line x1="335.5" y1="4" x2="335.5" stroke="#FAF9F3"/>
<line x1="343.5" y1="4" x2="343.5" stroke="#FAF9F3"/>
<line x1="351.5" y1="4" x2="351.5" stroke="#FAF9F3"/>
<line x1="359.5" y1="4" x2="359.5" stroke="#FAF9F3"/>
<line x1="367.5" y1="4" x2="367.5" stroke="#FAF9F3"/>
<line x1="375.5" y1="4" x2="375.5" stroke="#FAF9F3"/>
<line x1="383.5" y1="4" x2="383.5" stroke="#FAF9F3"/>
<line x1="391.5" y1="4" x2="391.5" stroke="#FAF9F3"/>
<line x1="399.5" y1="4" x2="399.5" stroke="#FAF9F3"/>
<line x1="407.5" y1="4" x2="407.5" stroke="#FAF9F3"/>
<line x1="415.5" y1="4" x2="415.5" stroke="#FAF9F3"/>
<line x1="423.5" y1="4" x2="423.5" stroke="#FAF9F3"/>
<line x1="431.5" y1="4" x2="431.5" stroke="#FAF9F3"/>
<line x1="439.5" y1="4" x2="439.5" stroke="#FAF9F3"/>
<line x1="447.5" y1="4" x2="447.5" stroke="#FAF9F3"/>
<line x1="455.5" y1="4" x2="455.5" stroke="#FAF9F3"/>
<line x1="463.5" y1="4" x2="463.5" stroke="#FAF9F3"/>
<line x1="471.5" y1="4" x2="471.5" stroke="#FAF9F3"/>
<line x1="479.5" y1="4" x2="479.5" stroke="#FAF9F3"/>
<line x1="487.5" y1="4" x2="487.5" stroke="#FAF9F3"/>
<line x1="495.5" y1="4" x2="495.5" stroke="#FAF9F3"/>
<line x1="503.5" y1="4" x2="503.5" stroke="#FAF9F3"/>
<line x1="511.5" y1="4" x2="511.5" stroke="#FAF9F3"/>
<line x1="519.5" y1="4" x2="519.5" stroke="#FAF9F3"/>
<line x1="527.5" y1="4" x2="527.5" stroke="#FAF9F3"/>
<line x1="535.5" y1="4" x2="535.5" stroke="#FAF9F3"/>
<line x1="543.5" y1="4" x2="543.5" stroke="#FAF9F3"/>
<line x1="551.5" y1="4" x2="551.5" stroke="#FAF9F3"/>
<line x1="559.5" y1="4" x2="559.5" stroke="#FAF9F3"/>
<line x1="567.5" y1="4" x2="567.5" stroke="#FAF9F3"/>
<line x1="575.5" y1="4" x2="575.5" stroke="#FAF9F3"/>
<line x1="583.5" y1="4" x2="583.5" stroke="#FAF9F3"/>
<line x1="591.5" y1="4" x2="591.5" stroke="#FAF9F3"/>
<line x1="599.5" y1="4" x2="599.5" stroke="#FAF9F3"/>
<line x1="607.5" y1="4" x2="607.5" stroke="#FAF9F3"/>
<line x1="615.5" y1="4" x2="615.5" stroke="#FAF9F3"/>
<line x1="623.5" y1="4" x2="623.5" stroke="#FAF9F3"/>
<line x1="631.5" y1="4" x2="631.5" stroke="#FAF9F3"/>
<line x1="639.5" y1="4" x2="639.5" stroke="#FAF9F3"/>
<line x1="647.5" y1="4" x2="647.5" stroke="#FAF9F3"/>
<line x1="655.5" y1="4" x2="655.5" stroke="#FAF9F3"/>
<line x1="663.5" y1="4" x2="663.5" stroke="#FAF9F3"/>
<line x1="671.5" y1="4" x2="671.5" stroke="#FAF9F3"/>
<line x1="679.5" y1="4" x2="679.5" stroke="#FAF9F3"/>
<line x1="687.5" y1="4" x2="687.5" stroke="#FAF9F3"/>
<line x1="695.5" y1="4" x2="695.5" stroke="#FAF9F3"/>
<line x1="703.5" y1="4" x2="703.5" stroke="#FAF9F3"/>
<line x1="711.5" y1="4" x2="711.5" stroke="#FAF9F3"/>
<line x1="719.5" y1="4" x2="719.5" stroke="#FAF9F3"/>
<line x1="727.5" y1="4" x2="727.5" stroke="#FAF9F3"/>
<line x1="735.5" y1="4" x2="735.5" stroke="#FAF9F3"/>
<line x1="743.5" y1="4" x2="743.5" stroke="#FAF9F3"/>
<line x1="751.5" y1="4" x2="751.5" stroke="#FAF9F3"/>
<line x1="759.5" y1="4" x2="759.5" stroke="#FAF9F3"/>
<line x1="767.5" y1="4" x2="767.5" stroke="#FAF9F3"/>
<line x1="775.5" y1="4" x2="775.5" stroke="#FAF9F3"/>
<line x1="783.5" y1="4" x2="783.5" stroke="#FAF9F3"/>
<line x1="791.5" y1="4" x2="791.5" stroke="#FAF9F3"/>
<line x1="799.5" y1="4" x2="799.5" stroke="#FAF9F3"/>
<line x1="807.5" y1="4" x2="807.5" stroke="#FAF9F3"/>
<line x1="815.5" y1="4" x2="815.5" stroke="#FAF9F3"/>
<line x1="823.5" y1="4" x2="823.5" stroke="#FAF9F3"/>
<line x1="831.5" y1="4" x2="831.5" stroke="#FAF9F3"/>
<line x1="839.5" y1="4" x2="839.5" stroke="#FAF9F3"/>
<line x1="847.5" y1="4" x2="847.5" stroke="#FAF9F3"/>
<line x1="855.5" y1="4" x2="855.5" stroke="#FAF9F3"/>
<line x1="863.5" y1="4" x2="863.5" stroke="#FAF9F3"/>
<line x1="871.5" y1="4" x2="871.5" stroke="#FAF9F3"/>
<line x1="879.5" y1="4" x2="879.5" stroke="#FAF9F3"/>
<line x1="887.5" y1="4" x2="887.5" stroke="#FAF9F3"/>
<line x1="895.5" y1="4" x2="895.5" stroke="#FAF9F3"/>
<line x1="903.5" y1="4" x2="903.5" stroke="#FAF9F3"/>
<line x1="911.5" y1="4" x2="911.5" stroke="#FAF9F3"/>
<line x1="919.5" y1="4" x2="919.5" stroke="#FAF9F3"/>
<line x1="927.5" y1="4" x2="927.5" stroke="#FAF9F3"/>
<line x1="935.5" y1="4" x2="935.5" stroke="#FAF9F3"/>
<line x1="943.5" y1="4" x2="943.5" stroke="#FAF9F3"/>
<line x1="951.5" y1="4" x2="951.5" stroke="#FAF9F3"/>
<line x1="959.5" y1="4" x2="959.5" stroke="#FAF9F3"/>
<line x1="967.5" y1="4" x2="967.5" stroke="#FAF9F3"/>
<line x1="975.5" y1="4" x2="975.5" stroke="#FAF9F3"/>
<line x1="983.5" y1="4" x2="983.5" stroke="#FAF9F3"/>
<line x1="991.5" y1="4" x2="991.5" stroke="#FAF9F3"/>
<line x1="999.5" y1="4" x2="999.5" stroke="#FAF9F3"/>
<line x1="1007.5" y1="4" x2="1007.5" stroke="#FAF9F3"/>
<line x1="1015.5" y1="4" x2="1015.5" stroke="#FAF9F3"/>
<line x1="1023.5" y1="4" x2="1023.5" stroke="#FAF9F3"/>
<line x1="1031.5" y1="4" x2="1031.5" stroke="#FAF9F3"/>
<line x1="1039.5" y1="4" x2="1039.5" stroke="#FAF9F3"/>
<line x1="1047.5" y1="4" x2="1047.5" stroke="#FAF9F3"/>
<line x1="1055.5" y1="4" x2="1055.5" stroke="#FAF9F3"/>
<line x1="1063.5" y1="4" x2="1063.5" stroke="#FAF9F3"/>
<line x1="1071.5" y1="4" x2="1071.5" stroke="#FAF9F3"/>
<line x1="1079.5" y1="4" x2="1079.5" stroke="#FAF9F3"/>
<line x1="1087.5" y1="4" x2="1087.5" stroke="#FAF9F3"/>
<line x1="1095.5" y1="4" x2="1095.5" stroke="#FAF9F3"/>
<line x1="1103.5" y1="4" x2="1103.5" stroke="#FAF9F3"/>
<line x1="1111.5" y1="4" x2="1111.5" stroke="#FAF9F3"/>
<line x1="1119.5" y1="4" x2="1119.5" stroke="#FAF9F3"/>
<line x1="1127.5" y1="4" x2="1127.5" stroke="#FAF9F3"/>
<line x1="1135.5" y1="4" x2="1135.5" stroke="#FAF9F3"/>
<line x1="1143.5" y1="4" x2="1143.5" stroke="#FAF9F3"/>
<line x1="1151.5" y1="4" x2="1151.5" stroke="#FAF9F3"/>
<line x1="1159.5" y1="4" x2="1159.5" stroke="#FAF9F3"/>
<line x1="1167.5" y1="4" x2="1167.5" stroke="#FAF9F3"/>
<line x1="1175.5" y1="4" x2="1175.5" stroke="#FAF9F3"/>
<line x1="1183.5" y1="4" x2="1183.5" stroke="#FAF9F3"/>
<line x1="1191.5" y1="4" x2="1191.5" stroke="#FAF9F3"/>
<line x1="1199.5" y1="4" x2="1199.5" stroke="#FAF9F3"/>
<line x1="1207.5" y1="4" x2="1207.5" stroke="#FAF9F3"/>
<line x1="1215.5" y1="4" x2="1215.5" stroke="#FAF9F3"/>
<line x1="1223.5" y1="4" x2="1223.5" stroke="#FAF9F3"/>
<line x1="1231.5" y1="4" x2="1231.5" stroke="#FAF9F3"/>
<line x1="1239.5" y1="4" x2="1239.5" stroke="#FAF9F3"/>
<line x1="1247.5" y1="4" x2="1247.5" stroke="#FAF9F3"/>
<line x1="1255.5" y1="4" x2="1255.5" stroke="#FAF9F3"/>
<line x1="1263.5" y1="4" x2="1263.5" stroke="#FAF9F3"/>
<line x1="1271.5" y1="4" x2="1271.5" stroke="#FAF9F3"/>
<line x1="1279.5" y1="4" x2="1279.5" stroke="#FAF9F3"/>
<line x1="1287.5" y1="4" x2="1287.5" stroke="#FAF9F3"/>
<line x1="1295.5" y1="4" x2="1295.5" stroke="#FAF9F3"/>
<line x1="1303.5" y1="4" x2="1303.5" stroke="#FAF9F3"/>
<line x1="1311.5" y1="4" x2="1311.5" stroke="#FAF9F3"/>
<line x1="1319.5" y1="4" x2="1319.5" stroke="#FAF9F3"/>
<line x1="1327.5" y1="4" x2="1327.5" stroke="#FAF9F3"/>
<line x1="1335.5" y1="4" x2="1335.5" stroke="#FAF9F3"/>
<line x1="1343.5" y1="4" x2="1343.5" stroke="#FAF9F3"/>
<line x1="1351.5" y1="4" x2="1351.5" stroke="#FAF9F3"/>
<line x1="1359.5" y1="4" x2="1359.5" stroke="#FAF9F3"/>
<line x1="1367.5" y1="4" x2="1367.5" stroke="#FAF9F3"/>
<line x1="1375.5" y1="4" x2="1375.5" stroke="#FAF9F3"/>
<line x1="1383.5" y1="4" x2="1383.5" stroke="#FAF9F3"/>
<line x1="1391.5" y1="4" x2="1391.5" stroke="#FAF9F3"/>
<line x1="1399.5" y1="4" x2="1399.5" stroke="#FAF9F3"/>
<line x1="1407.5" y1="4" x2="1407.5" stroke="#FAF9F3"/>
<line x1="1415.5" y1="4" x2="1415.5" stroke="#FAF9F3"/>
<line x1="1423.5" y1="4" x2="1423.5" stroke="#FAF9F3"/>
<line x1="1431.5" y1="4" x2="1431.5" stroke="#FAF9F3"/>
<line x1="1439.5" y1="4" x2="1439.5" stroke="#FAF9F3"/>
<line x1="1447.5" y1="4" x2="1447.5" stroke="#FAF9F3"/>
<line x1="1455.5" y1="4" x2="1455.5" stroke="#FAF9F3"/>
<line x1="1463.5" y1="4" x2="1463.5" stroke="#FAF9F3"/>
</g>
<defs>
<clipPath id="clip0_114014_20811">
<rect width="1464" height="4" fill="white"/>
</clipPath>
</defs>
</svg>
