<svg width="20" height="21" viewBox="0 0 20 21" fill="none" xmlns="http://www.w3.org/2000/svg">
<path d="M18.5891 8.87593C18.5717 8.78792 18.5355 8.70468 18.4831 8.63189C18.4306 8.55909 18.3632 8.49844 18.2852 8.45405L15.9547 7.12593L15.9453 4.49937C15.9451 4.40891 15.9251 4.31959 15.887 4.23758C15.8488 4.15557 15.7933 4.08282 15.7242 4.02437C14.8789 3.30929 13.9054 2.76129 12.8555 2.40952C12.7728 2.38154 12.6852 2.37118 12.5983 2.37912C12.5113 2.38706 12.427 2.41312 12.3508 2.45562L10 3.76968L7.6469 2.45327C7.57061 2.41053 7.48621 2.38428 7.39914 2.37621C7.31207 2.36813 7.22428 2.37842 7.14143 2.4064C6.09219 2.76043 5.11975 3.31054 4.27581 4.02749C4.20688 4.08586 4.15142 4.15848 4.11325 4.24035C4.07508 4.32222 4.05511 4.41138 4.05471 4.50171L4.043 7.13062L1.71253 8.45874C1.63456 8.50313 1.56706 8.56378 1.51462 8.63658C1.46218 8.70937 1.42603 8.7926 1.40862 8.88062C1.19534 9.9524 1.19534 11.0557 1.40862 12.1275C1.42603 12.2155 1.46218 12.2987 1.51462 12.3715C1.56706 12.4443 1.63456 12.505 1.71253 12.5494L4.043 13.8775L4.05237 16.5048C4.05265 16.5953 4.07257 16.6846 4.11074 16.7666C4.14891 16.8486 4.20443 16.9214 4.27346 16.9798C5.11883 17.6949 6.09234 18.2429 7.14221 18.5947C7.22489 18.6227 7.31252 18.633 7.39944 18.6251C7.48636 18.6171 7.57066 18.5911 7.6469 18.5486L10 17.2306L12.3532 18.547C12.4463 18.5989 12.5512 18.6258 12.6578 18.6251C12.7261 18.6251 12.7939 18.614 12.8586 18.5923C13.9076 18.2385 14.88 17.6889 15.7242 16.9728C15.7932 16.9144 15.8486 16.8418 15.8868 16.7599C15.925 16.6781 15.9449 16.5889 15.9453 16.4986L15.9571 13.8697L18.2875 12.5416C18.3655 12.4972 18.433 12.4365 18.4854 12.3637C18.5379 12.2909 18.574 12.2077 18.5914 12.1197C18.8035 11.0488 18.8027 9.94655 18.5891 8.87593ZM10 13.6251C9.38196 13.6251 8.77777 13.4419 8.26387 13.0985C7.74997 12.7551 7.34943 12.2671 7.1129 11.696C6.87638 11.125 6.81449 10.4967 6.93507 9.89049C7.05565 9.2843 7.35328 8.72748 7.79032 8.29044C8.22736 7.8534 8.78418 7.55577 9.39037 7.43519C9.99656 7.31461 10.6249 7.3765 11.1959 7.61302C11.7669 7.84955 12.255 8.25009 12.5984 8.76399C12.9417 9.27789 13.125 9.88208 13.125 10.5001C13.125 11.3289 12.7958 12.1238 12.2097 12.7099C11.6237 13.2959 10.8288 13.6251 10 13.6251Z" fill="#131313"/>
</svg>
