<svg width="20" height="21" viewBox="0 0 20 21" fill="none" xmlns="http://www.w3.org/2000/svg">
<path d="M9.9999 6.75003C9.25822 6.75003 8.5332 6.96996 7.91652 7.38202C7.29983 7.79407 6.81918 8.37974 6.53536 9.06496C6.25153 9.75019 6.17727 10.5042 6.32196 11.2316C6.46665 11.959 6.82381 12.6272 7.34825 13.1517C7.8727 13.6761 8.54089 14.0333 9.26832 14.178C9.99574 14.3227 10.7497 14.2484 11.435 13.9646C12.1202 13.6807 12.7059 13.2001 13.1179 12.5834C13.53 11.9667 13.7499 11.2417 13.7499 10.5C13.7489 9.50578 13.3535 8.55256 12.6504 7.84952C11.9474 7.14648 10.9941 6.75106 9.9999 6.75003ZM9.9999 13C9.50545 13 9.0221 12.8534 8.61098 12.5787C8.19986 12.304 7.87942 11.9136 7.69021 11.4567C7.50099 10.9999 7.45148 10.4973 7.54794 10.0123C7.6444 9.52735 7.88251 9.08189 8.23214 8.73226C8.58177 8.38263 9.02723 8.14453 9.51218 8.04806C9.99713 7.9516 10.4998 8.00111 10.9566 8.19033C11.4134 8.37955 11.8039 8.69998 12.0786 9.1111C12.3533 9.52222 12.4999 10.0056 12.4999 10.5C12.4999 11.1631 12.2365 11.799 11.7677 12.2678C11.2988 12.7366 10.6629 13 9.9999 13ZM18.589 8.87581C18.5716 8.7878 18.5354 8.70456 18.483 8.63177C18.4305 8.55897 18.363 8.49832 18.2851 8.45393L15.9546 7.12581L15.9452 4.49924C15.9449 4.40879 15.925 4.31947 15.8868 4.23746C15.8487 4.15545 15.7932 4.0827 15.7241 4.02424C14.8788 3.30916 13.9053 2.76117 12.8554 2.4094C12.7727 2.38142 12.6851 2.37106 12.5981 2.379C12.5112 2.38694 12.4269 2.413 12.3507 2.45549L9.9999 3.76956L7.64678 2.45315C7.57049 2.41041 7.48609 2.38416 7.39902 2.37608C7.31195 2.36801 7.22416 2.37829 7.14131 2.40628C6.09221 2.76062 5.11982 3.3107 4.27569 4.02737C4.20675 4.08574 4.15129 4.15836 4.11313 4.24023C4.07496 4.3221 4.05499 4.41126 4.05459 4.50159L4.04287 7.1305L1.7124 8.45862C1.63444 8.50301 1.56694 8.56366 1.5145 8.63646C1.46206 8.70925 1.42591 8.79248 1.4085 8.8805C1.19521 9.95228 1.19521 11.0556 1.4085 12.1274C1.42591 12.2154 1.46206 12.2986 1.5145 12.3714C1.56694 12.4442 1.63444 12.5049 1.7124 12.5492L4.04287 13.8774L4.05225 16.5039C4.05253 16.5944 4.07245 16.6837 4.11062 16.7657C4.14879 16.8477 4.20431 16.9205 4.27334 16.9789C5.11871 17.694 6.09221 18.242 7.14209 18.5938C7.22477 18.6218 7.31239 18.6321 7.39932 18.6242C7.48624 18.6162 7.57054 18.5902 7.64678 18.5477L9.9999 17.2305L12.353 18.5469C12.4462 18.5988 12.5511 18.6257 12.6577 18.625C12.726 18.625 12.7938 18.6139 12.8585 18.5922C13.9075 18.2383 14.8799 17.6888 15.7241 16.9727C15.7931 16.9143 15.8485 16.8417 15.8867 16.7598C15.9249 16.678 15.9448 16.5888 15.9452 16.4985L15.9569 13.8696L18.2874 12.5414C18.3654 12.497 18.4329 12.4364 18.4853 12.3636C18.5378 12.2908 18.5739 12.2076 18.5913 12.1196C18.8034 11.0486 18.8026 9.94643 18.589 8.87581ZM17.4171 11.6032L15.1851 12.8727C15.0873 12.9283 15.0063 13.0093 14.9507 13.1071C14.9054 13.1852 14.8577 13.268 14.8093 13.3461C14.7473 13.4446 14.7142 13.5586 14.714 13.675L14.7022 16.1946C14.1023 16.6657 13.4339 17.0424 12.7202 17.3117L10.4687 16.0571C10.3752 16.0053 10.27 15.9784 10.1632 15.9789H10.1483C10.0538 15.9789 9.9585 15.9789 9.86397 15.9789C9.75216 15.9761 9.64162 16.0031 9.54365 16.0571L7.29053 17.3149C6.5753 17.0476 5.90508 16.6727 5.30303 16.2032L5.29444 13.6875C5.29405 13.5709 5.26103 13.4567 5.19912 13.3578C5.15069 13.2797 5.10303 13.2016 5.0585 13.1188C5.00328 13.0195 4.92232 12.9369 4.82412 12.8797L2.58975 11.6071C2.47412 10.8757 2.47412 10.1306 2.58975 9.39925L4.81787 8.12737C4.91567 8.07176 4.99664 7.99079 5.05225 7.89299C5.09756 7.81487 5.14522 7.73206 5.19365 7.65393C5.25566 7.55541 5.28869 7.44143 5.28897 7.32503L5.30069 4.80549C5.90063 4.33436 6.56901 3.95762 7.28272 3.68831L9.53115 4.94299C9.62901 4.99724 9.73963 5.02422 9.85147 5.02112C9.946 5.02112 10.0413 5.02112 10.1358 5.02112C10.2476 5.02391 10.3582 4.99695 10.4562 4.94299L12.7093 3.68518C13.4245 3.95243 14.0947 4.32732 14.6968 4.7969L14.7054 7.31253C14.7058 7.42916 14.7388 7.54336 14.8007 7.64221C14.8491 7.72034 14.8968 7.79846 14.9413 7.88128C14.9965 7.98058 15.0775 8.06317 15.1757 8.12034L17.4101 9.393C17.5272 10.125 17.5285 10.8708 17.414 11.6032H17.4171Z" fill="#131313"/>
</svg>
