<svg width="21" height="20" viewBox="0 0 21 20" fill="none" xmlns="http://www.w3.org/2000/svg">
<path d="M10.4998 6.25001C9.75811 6.25001 9.03309 6.46994 8.4164 6.882C7.79972 7.29405 7.31907 7.87972 7.03524 8.56494C6.75142 9.25017 6.67715 10.0042 6.82185 10.7316C6.96654 11.459 7.32369 12.1272 7.84814 12.6517C8.37259 13.1761 9.04077 13.5333 9.7682 13.678C10.4956 13.8226 11.2496 13.7484 11.9349 13.4646C12.6201 13.1807 13.2057 12.7001 13.6178 12.0834C14.0299 11.4667 14.2498 10.7417 14.2498 10C14.2488 9.00576 13.8533 8.05254 13.1503 7.3495C12.4473 6.64646 11.494 6.25104 10.4998 6.25001ZM10.4998 12.5C10.0053 12.5 9.52199 12.3534 9.11087 12.0787C8.69974 11.804 8.37931 11.4135 8.19009 10.9567C8.00087 10.4999 7.95137 9.99723 8.04783 9.51228C8.14429 9.02733 8.38239 8.58187 8.73203 8.23224C9.08166 7.88261 9.52711 7.64451 10.0121 7.54804C10.497 7.45158 10.9997 7.50109 11.4565 7.69031C11.9133 7.87953 12.3038 8.19996 12.5785 8.61108C12.8532 9.0222 12.9998 9.50555 12.9998 10C12.9998 10.663 12.7364 11.2989 12.2676 11.7678C11.7987 12.2366 11.1628 12.5 10.4998 12.5ZM17.3748 10.1688C17.3779 10.0563 17.3779 9.94376 17.3748 9.83126L18.5404 8.37501C18.6015 8.29855 18.6438 8.2088 18.6639 8.113C18.684 8.01719 18.6813 7.91801 18.656 7.82344C18.465 7.10516 18.1791 6.41551 17.806 5.77266C17.7572 5.68853 17.6894 5.61697 17.608 5.56367C17.5266 5.51037 17.4339 5.4768 17.3373 5.46563L15.4842 5.25938C15.4071 5.17813 15.329 5.10001 15.2498 5.02501L15.031 3.16719C15.0198 3.07048 14.9861 2.97774 14.9327 2.89636C14.8792 2.81497 14.8075 2.7472 14.7232 2.69844C14.0801 2.32606 13.3905 2.0405 12.6724 1.84922C12.5778 1.82407 12.4786 1.82149 12.3828 1.84171C12.287 1.86193 12.1973 1.90438 12.1209 1.96563L10.6685 3.12501C10.556 3.12501 10.4435 3.12501 10.331 3.12501L8.87479 1.96172C8.79833 1.90061 8.70859 1.8583 8.61278 1.83822C8.51698 1.81813 8.4178 1.82083 8.32323 1.8461C7.60507 2.03753 6.91546 2.32335 6.27245 2.6961C6.18832 2.74495 6.11676 2.81276 6.06346 2.89414C6.01015 2.97551 5.97658 3.06821 5.96542 3.16485L5.75917 5.0211C5.67792 5.0987 5.59979 5.17683 5.52479 5.25547L3.66698 5.46876C3.57027 5.48001 3.47753 5.5137 3.39614 5.56714C3.31476 5.62058 3.24699 5.6923 3.19823 5.77657C2.82584 6.41967 2.54029 7.10926 2.34901 7.82735C2.32385 7.92198 2.32128 8.02119 2.3415 8.117C2.36172 8.21281 2.40416 8.30252 2.46542 8.37891L3.62479 9.83126C3.62479 9.94376 3.62479 10.0563 3.62479 10.1688L2.46151 11.625C2.40039 11.7015 2.35809 11.7912 2.338 11.887C2.31792 11.9828 2.32062 12.082 2.34589 12.1766C2.53697 12.8948 2.82281 13.5845 3.19589 14.2274C3.24473 14.3115 3.31255 14.383 3.39392 14.4363C3.4753 14.4896 3.568 14.5232 3.66464 14.5344L5.51776 14.7406C5.59537 14.8219 5.67349 14.9 5.75214 14.975L5.96854 16.8328C5.97979 16.9295 6.01348 17.0223 6.06692 17.1037C6.12037 17.185 6.19208 17.2528 6.27635 17.3016C6.91945 17.674 7.60904 17.9595 8.32714 18.1508C8.42176 18.1759 8.52098 18.1785 8.61679 18.1583C8.71259 18.1381 8.80231 18.0956 8.8787 18.0344L10.331 16.875C10.4435 16.8781 10.556 16.8781 10.6685 16.875L12.1248 18.0406C12.2013 18.1017 12.291 18.1441 12.3868 18.1641C12.4826 18.1842 12.5818 18.1815 12.6764 18.1563C13.3946 17.9652 14.0843 17.6793 14.7271 17.3063C14.8113 17.2574 14.8828 17.1896 14.9361 17.1082C14.9894 17.0268 15.023 16.9341 15.0342 16.8375L15.2404 14.9844C15.3217 14.9073 15.3998 14.8292 15.4748 14.75L17.3326 14.5313C17.4293 14.52 17.5221 14.4863 17.6034 14.4329C17.6848 14.3794 17.7526 14.3077 17.8014 14.2234C18.1737 13.5803 18.4593 12.8908 18.6506 12.1727C18.6757 12.078 18.6783 11.9788 18.6581 11.883C18.6379 11.7872 18.5954 11.6975 18.5342 11.6211L17.3748 10.1688ZM16.117 9.66094C16.1303 9.88679 16.1303 10.1132 16.117 10.3391C16.1077 10.4937 16.1561 10.6463 16.2529 10.7672L17.3615 12.1524C17.2343 12.5566 17.0714 12.9488 16.8748 13.3242L15.1092 13.5242C14.9554 13.5413 14.8134 13.6148 14.7107 13.7305C14.5603 13.8996 14.4002 14.0598 14.231 14.2102C14.1153 14.3129 14.0419 14.4548 14.0248 14.6086L13.8287 16.3727C13.4533 16.5694 13.0611 16.7323 12.6568 16.8594L11.2709 15.7508C11.16 15.6622 11.0222 15.614 10.8803 15.6141H10.8428C10.6169 15.6273 10.3905 15.6273 10.1646 15.6141C10.01 15.6048 9.85744 15.6532 9.73651 15.75L8.34745 16.8594C7.94318 16.7322 7.55101 16.5693 7.17557 16.3727L6.97557 14.6094C6.95851 14.4556 6.88502 14.3137 6.76932 14.2109C6.60019 14.0606 6.44002 13.9004 6.28964 13.7313C6.18693 13.6156 6.04496 13.5421 5.8912 13.525L4.12714 13.3281C3.93041 12.9527 3.76753 12.5606 3.64042 12.1563L4.74901 10.7703C4.84581 10.6494 4.89426 10.4968 4.88495 10.3422C4.87167 10.1163 4.87167 9.88991 4.88495 9.66407C4.89426 9.50945 4.84581 9.35688 4.74901 9.23594L3.64042 7.84766C3.76762 7.44339 3.9305 7.05122 4.12714 6.67579L5.89042 6.47579C6.04418 6.45872 6.18615 6.38523 6.28885 6.26954C6.43924 6.1004 6.59941 5.94023 6.76854 5.78985C6.8847 5.68707 6.95849 5.54478 6.97557 5.39063L7.17167 3.62735C7.54706 3.43062 7.93924 3.26774 8.34354 3.14063L9.72948 4.24922C9.85041 4.34603 10.003 4.39447 10.1576 4.38516C10.3835 4.37188 10.6099 4.37188 10.8357 4.38516C10.9904 4.39447 11.1429 4.34603 11.2639 4.24922L12.6521 3.14063C13.0564 3.26784 13.4486 3.43072 13.824 3.62735L14.024 5.39063C14.0411 5.54439 14.1146 5.68636 14.2303 5.78907C14.3994 5.93945 14.5596 6.09962 14.7099 6.26876C14.8127 6.38445 14.9546 6.45794 15.1084 6.47501L16.8724 6.6711C17.0692 7.04649 17.2321 7.43867 17.3592 7.84297L16.2506 9.22891C16.1528 9.35086 16.1043 9.505 16.1146 9.66094H16.117Z" fill="white"/>
</svg>
