<svg width="16" height="16" viewBox="0 0 16 16" fill="none" xmlns="http://www.w3.org/2000/svg">
<path d="M14.8714 6.70063C14.8574 6.63022 14.8285 6.56363 14.7866 6.50539C14.7446 6.44716 14.6906 6.39864 14.6282 6.36313L12.7639 5.30063L12.7564 3.19938C12.7561 3.12701 12.7402 3.05555 12.7097 2.98995C12.6791 2.92434 12.6347 2.86614 12.5795 2.81938C11.9032 2.24731 11.1244 1.80892 10.2845 1.5275C10.2184 1.50511 10.1483 1.49683 10.0787 1.50318C10.0092 1.50953 9.94174 1.53038 9.88074 1.56438L8.00012 2.61563L6.11762 1.5625C6.05659 1.52831 5.98906 1.50731 5.91941 1.50085C5.84975 1.49439 5.77952 1.50262 5.71324 1.525C4.87385 1.80822 4.09589 2.24832 3.42074 2.82188C3.3656 2.86857 3.32123 2.92667 3.2907 2.99216C3.26016 3.05766 3.24419 3.12899 3.24387 3.20125L3.23449 5.30438L1.37012 6.36688C1.30774 6.40239 1.25375 6.45091 1.21179 6.50914C1.16984 6.56738 1.14092 6.63397 1.12699 6.70438C0.956367 7.5618 0.956367 8.44445 1.12699 9.30188C1.14092 9.37229 1.16984 9.43887 1.21179 9.49711C1.25375 9.55534 1.30774 9.60387 1.37012 9.63938L3.23449 10.7019L3.24199 12.8038C3.24222 12.8761 3.25815 12.9476 3.28869 13.0132C3.31923 13.0788 3.36364 13.137 3.41887 13.1838C4.09516 13.7558 4.87397 14.1942 5.71387 14.4756C5.78001 14.498 5.85011 14.5063 5.91965 14.4999C5.98919 14.4936 6.05663 14.4728 6.11762 14.4388L8.00012 13.3844L9.88262 14.4375C9.95712 14.479 10.0411 14.5005 10.1264 14.5C10.181 14.5 10.2352 14.4911 10.287 14.4738C11.1262 14.1907 11.9041 13.751 12.5795 13.1781C12.6346 13.1314 12.679 13.0733 12.7095 13.0078C12.7401 12.9423 12.7561 12.871 12.7564 12.7988L12.7657 10.6956L14.6301 9.63313C14.6925 9.59762 14.7465 9.54909 14.7884 9.49086C14.8304 9.43262 14.8593 9.36603 14.8732 9.29563C15.0429 8.43888 15.0423 7.55712 14.8714 6.70063ZM8.00012 10.5C7.50567 10.5 7.02232 10.3534 6.61119 10.0787C6.20007 9.80397 5.87964 9.41353 5.69042 8.95671C5.5012 8.49989 5.45169 7.99723 5.54816 7.51228C5.64462 7.02732 5.88272 6.58187 6.23235 6.23223C6.58198 5.8826 7.02744 5.6445 7.51239 5.54804C7.99735 5.45157 8.50001 5.50108 8.95683 5.6903C9.41364 5.87952 9.80409 6.19995 10.0788 6.61108C10.3535 7.0222 10.5001 7.50555 10.5001 8C10.5001 8.66304 10.2367 9.29893 9.76789 9.76777C9.29905 10.2366 8.66316 10.5 8.00012 10.5Z" fill="#FAFAFA"/>
</svg>
