<svg width="20" height="20" viewBox="0 0 20 20" fill="none" xmlns="http://www.w3.org/2000/svg">
<path d="M16.7127 16.4547L4.21266 2.70468C4.15777 2.64281 4.09115 2.59245 4.01666 2.55651C3.94216 2.52058 3.86128 2.49979 3.77869 2.49535C3.69611 2.4909 3.61346 2.5029 3.53554 2.53063C3.45762 2.55836 3.38598 2.60129 3.32477 2.65691C3.26357 2.71254 3.21401 2.77976 3.17897 2.85467C3.14393 2.92959 3.12411 3.01072 3.12066 3.09335C3.11721 3.17599 3.13019 3.25849 3.15886 3.33607C3.18752 3.41365 3.2313 3.48477 3.28766 3.5453L6.25016 6.8039V9.99999C6.25025 10.673 6.43147 11.3336 6.77481 11.9125C7.11815 12.4914 7.61096 12.9672 8.20153 13.29C8.7921 13.6128 9.45867 13.7707 10.1313 13.7472C10.8039 13.7237 11.4578 13.5195 12.0244 13.1562L12.8744 14.0937C12.1252 14.62 11.2459 14.9305 10.3324 14.9914C9.41882 15.0522 8.50611 14.861 7.69377 14.4387C6.88143 14.0164 6.20064 13.3791 5.72565 12.5964C5.25067 11.8137 4.99971 10.9156 5.00016 9.99999C5.00016 9.83423 4.93431 9.67526 4.8171 9.55805C4.69989 9.44084 4.54092 9.37499 4.37516 9.37499C4.2094 9.37499 4.05043 9.44084 3.93322 9.55805C3.81601 9.67526 3.75016 9.83423 3.75016 9.99999C3.75206 11.5489 4.32822 13.042 5.36722 14.1907C6.40622 15.3393 7.83425 16.0619 9.37516 16.2187V18.125C9.37516 18.2908 9.44101 18.4497 9.55822 18.5669C9.67543 18.6841 9.8344 18.75 10.0002 18.75C10.1659 18.75 10.3249 18.6841 10.4421 18.5669C10.5593 18.4497 10.6252 18.2908 10.6252 18.125V16.218C11.7461 16.1064 12.8158 15.6931 13.7205 15.0219L15.7877 17.2953C15.8425 17.3572 15.9092 17.4075 15.9837 17.4435C16.0582 17.4794 16.139 17.5002 16.2216 17.5046C16.3042 17.5091 16.3869 17.4971 16.4648 17.4694C16.5427 17.4416 16.6143 17.3987 16.6755 17.3431C16.7367 17.2874 16.7863 17.2202 16.8213 17.1453C16.8564 17.0704 16.8762 16.9893 16.8797 16.9066C16.8831 16.824 16.8701 16.7415 16.8415 16.6639C16.8128 16.5863 16.769 16.5152 16.7127 16.4547ZM10.0002 12.5C9.33712 12.5 8.70123 12.2366 8.23239 11.7678C7.76355 11.2989 7.50016 10.663 7.50016 9.99999V8.1789L11.1658 12.2117C10.8064 12.4011 10.4063 12.5 10.0002 12.5ZM6.80953 3.02968C7.23828 2.33541 7.88179 1.79993 8.64241 1.50449C9.40304 1.20905 10.2393 1.16977 11.0242 1.39261C11.8092 1.61544 12.5001 2.08824 12.992 2.73926C13.484 3.39029 13.7501 4.184 13.7502 4.99999V9.72108C13.7502 9.88684 13.6843 10.0458 13.5671 10.163C13.4499 10.2802 13.2909 10.3461 13.1252 10.3461C12.9594 10.3461 12.8004 10.2802 12.6832 10.163C12.566 10.0458 12.5002 9.88684 12.5002 9.72108V4.99999C12.5005 4.45571 12.3231 3.92619 11.9951 3.49187C11.667 3.05755 11.2062 2.74214 10.6826 2.59356C10.159 2.44498 9.60121 2.47134 9.09394 2.66864C8.58667 2.86593 8.15765 3.22339 7.87203 3.68671C7.83042 3.75958 7.77455 3.82332 7.70778 3.87413C7.641 3.92494 7.56467 3.96179 7.48335 3.98247C7.40202 4.00315 7.31737 4.00724 7.23443 3.9945C7.15149 3.98177 7.07196 3.95246 7.00059 3.90832C6.92922 3.86419 6.86747 3.80614 6.81902 3.73762C6.77057 3.66911 6.73641 3.59155 6.71858 3.50955C6.70075 3.42755 6.69961 3.34281 6.71524 3.26036C6.73087 3.17792 6.76293 3.09946 6.80953 3.02968ZM14.6595 11.818C14.8857 11.2386 15.0012 10.6219 15.0002 9.99999C15.0002 9.83423 15.066 9.67526 15.1832 9.55805C15.3004 9.44084 15.4594 9.37499 15.6252 9.37499C15.7909 9.37499 15.9499 9.44084 16.0671 9.55805C16.1843 9.67526 16.2502 9.83423 16.2502 9.99999C16.2513 10.7775 16.1066 11.5484 15.8236 12.2726C15.795 12.3508 15.7511 12.4224 15.6944 12.4833C15.6378 12.5443 15.5695 12.5933 15.4937 12.6275C15.4178 12.6617 15.3359 12.6804 15.2527 12.6826C15.1696 12.6847 15.0868 12.6702 15.0093 12.6399C14.9318 12.6097 14.8611 12.5642 14.8014 12.5063C14.7417 12.4483 14.6942 12.3791 14.6616 12.3025C14.629 12.2259 14.6121 12.1436 14.6117 12.0604C14.6113 11.9772 14.6276 11.8948 14.6595 11.818Z" fill="#343330"/>
</svg>
