<svg width="21" height="20" viewBox="0 0 21 20" fill="none" xmlns="http://www.w3.org/2000/svg">
<path d="M14.875 11.875V8.125C14.875 7.95924 14.9408 7.80027 15.0581 7.68306C15.1753 7.56585 15.3342 7.5 15.5 7.5C15.6658 7.5 15.8247 7.56585 15.9419 7.68306C16.0592 7.80027 16.125 7.95924 16.125 8.125V11.875C16.125 12.0408 16.0592 12.1997 15.9419 12.3169C15.8247 12.4342 15.6658 12.5 15.5 12.5C15.3342 12.5 15.1753 12.4342 15.0581 12.3169C14.9408 12.1997 14.875 12.0408 14.875 11.875ZM18 6.25C17.8342 6.25 17.6753 6.31585 17.5581 6.43306C17.4408 6.55027 17.375 6.70924 17.375 6.875V13.125C17.375 13.2908 17.4408 13.4497 17.5581 13.5669C17.6753 13.6842 17.8342 13.75 18 13.75C18.1658 13.75 18.3247 13.6842 18.4419 13.5669C18.5592 13.4497 18.625 13.2908 18.625 13.125V6.875C18.625 6.70924 18.5592 6.55027 18.4419 6.43306C18.3247 6.31585 18.1658 6.25 18 6.25ZM17.2125 16.4547C17.2689 16.5152 17.3126 16.5863 17.3413 16.6639C17.37 16.7415 17.3829 16.824 17.3795 16.9066C17.376 16.9893 17.3562 17.0704 17.3212 17.1453C17.2861 17.2202 17.2366 17.2875 17.1754 17.3431C17.1142 17.3987 17.0425 17.4416 16.9646 17.4694C16.8867 17.4971 16.8041 17.5091 16.7215 17.5046C16.6389 17.5002 16.558 17.4794 16.4835 17.4435C16.409 17.4075 16.3424 17.3572 16.2875 17.2953L13 13.6789V17.5C12.9999 17.617 12.967 17.7315 12.905 17.8307C12.8431 17.9299 12.7545 18.0097 12.6495 18.0611C12.5444 18.1124 12.427 18.1333 12.3107 18.1212C12.1944 18.1092 12.0837 18.0647 11.9914 17.993L6.53516 13.75H3C2.66848 13.75 2.35054 13.6183 2.11612 13.3839C1.8817 13.1495 1.75 12.8315 1.75 12.5V7.5C1.75 7.16848 1.8817 6.85054 2.11612 6.61612C2.35054 6.3817 2.66848 6.25 3 6.25H6.24609L3.7875 3.54532C3.73115 3.48478 3.68737 3.41366 3.6587 3.33608C3.63004 3.2585 3.61705 3.176 3.6205 3.09337C3.62396 3.01073 3.64378 2.92961 3.67881 2.85469C3.71385 2.77977 3.76341 2.71255 3.82462 2.65693C3.88582 2.6013 3.95746 2.55838 4.03538 2.53064C4.1133 2.50291 4.19595 2.49092 4.27854 2.49536C4.36112 2.4998 4.44201 2.5206 4.5165 2.55653C4.59099 2.59246 4.65761 2.64282 4.7125 2.70469L17.2125 16.4547ZM11.75 12.3039L7.38281 7.5H3V12.5H6.75C6.88905 12.4998 7.02414 12.5463 7.13359 12.632L11.75 16.2219V12.3039ZM9.64531 5.41485L11.75 3.77422V8.34219C11.75 8.50795 11.8158 8.66692 11.9331 8.78413C12.0503 8.90134 12.2092 8.96719 12.375 8.96719C12.5408 8.96719 12.6997 8.90134 12.8169 8.78413C12.9342 8.66692 13 8.50795 13 8.34219V2.5C12.9999 2.38306 12.967 2.26848 12.905 2.1693C12.8431 2.07012 12.7545 1.99031 12.6495 1.93896C12.5444 1.8876 12.427 1.86676 12.3107 1.87879C12.1944 1.89083 12.0837 1.93526 11.9914 2.00704L8.87812 4.42891C8.7499 4.53154 8.66722 4.68051 8.64797 4.84361C8.62872 5.00672 8.67444 5.17085 8.77525 5.3005C8.87606 5.43016 9.02386 5.51493 9.18668 5.53647C9.34949 5.55801 9.51425 5.5146 9.64531 5.41563V5.41485Z" fill="white"/>
</svg>
