<svg width="20" height="20" viewBox="0 0 20 20" fill="none" xmlns="http://www.w3.org/2000/svg">
<path d="M12.0578 7.05784L13.4914 5.62502L12.0578 4.19221C11.9405 4.07494 11.8747 3.91588 11.8747 3.75003C11.8747 3.58417 11.9405 3.42511 12.0578 3.30784C12.1751 3.19056 12.3342 3.12468 12.5 3.12468C12.6659 3.12468 12.8249 3.19056 12.9422 3.30784L14.375 4.74143L15.8078 3.30784C15.9251 3.19056 16.0842 3.12468 16.25 3.12468C16.4159 3.12468 16.5749 3.19056 16.6922 3.30784C16.8095 3.42511 16.8754 3.58417 16.8754 3.75003C16.8754 3.91588 16.8095 4.07494 16.6922 4.19221L15.2594 5.62502L16.6922 7.05784C16.7503 7.11591 16.7963 7.18484 16.8278 7.26072C16.8592 7.33659 16.8754 7.4179 16.8754 7.50003C16.8754 7.58215 16.8592 7.66346 16.8278 7.73934C16.7963 7.81521 16.7503 7.88414 16.6922 7.94221C16.6341 8.00028 16.5652 8.04634 16.4893 8.07777C16.4134 8.1092 16.3321 8.12537 16.25 8.12537C16.1679 8.12537 16.0866 8.1092 16.0107 8.07777C15.9348 8.04634 15.8659 8.00028 15.8078 7.94221L14.375 6.50862L12.9422 7.94221C12.8249 8.05949 12.6659 8.12537 12.5 8.12537C12.3342 8.12537 12.1751 8.05949 12.0578 7.94221C11.9405 7.82494 11.8747 7.66588 11.8747 7.50003C11.8747 7.33417 11.9405 7.17511 12.0578 7.05784ZM17.3703 12.3797L13.6899 10.7305L13.6797 10.7258C13.4886 10.6441 13.2802 10.6113 13.0733 10.6304C12.8663 10.6495 12.6674 10.7199 12.4945 10.8352C12.4742 10.8486 12.4546 10.8632 12.4359 10.8789L10.5367 12.5C9.33204 11.9149 8.08829 10.6805 7.50313 9.49143L9.12657 7.56096C9.14219 7.54143 9.15704 7.5219 9.1711 7.50081C9.28394 7.32839 9.35239 7.13074 9.37039 6.92547C9.38838 6.7202 9.35534 6.51366 9.27423 6.32424V6.31487L7.62032 2.62815C7.51309 2.3807 7.3287 2.17457 7.09468 2.04052C6.86067 1.90648 6.58958 1.85171 6.32188 1.8844C5.26326 2.0237 4.29155 2.54359 3.58824 3.34697C2.88492 4.15035 2.49809 5.18228 2.50001 6.25002C2.50001 12.4531 7.54688 17.5 13.75 17.5C14.8177 17.5019 15.8497 17.1151 16.6531 16.4118C17.4564 15.7085 17.9763 14.7368 18.1156 13.6782C18.1484 13.4105 18.0937 13.1395 17.9598 12.9055C17.8259 12.6715 17.62 12.4871 17.3727 12.3797H17.3703Z" fill="white"/>
</svg>
