<svg width="272" height="11" viewBox="0 0 272 11" fill="none" xmlns="http://www.w3.org/2000/svg">
<g clip-path="url(#clip0_113955_30756)">
<line x1="7.50049" y1="10.4082" x2="7.50049" y2="-0.000259399" stroke="#FA64B2"/>
<line x1="15.5005" y1="10.4082" x2="15.5005" y2="-0.000259399" stroke="#FA64B2"/>
<line x1="23.5005" y1="10.4082" x2="23.5005" y2="-0.000259399" stroke="#FA64B2"/>
<line x1="31.5005" y1="10.4082" x2="31.5005" y2="-0.000259399" stroke="#FA64B2"/>
<line x1="39.5005" y1="10.4082" x2="39.5005" y2="-0.000259399" stroke="#FA64B2"/>
<line x1="47.5005" y1="10.4082" x2="47.5005" y2="-0.000259399" stroke="#FA64B2"/>
<line x1="55.5005" y1="10.4082" x2="55.5005" y2="-0.000259399" stroke="#FA64B2"/>
<line x1="63.5005" y1="10.4082" x2="63.5005" y2="-0.000259399" stroke="#FA64B2"/>
<line x1="71.5005" y1="10.4082" x2="71.5005" y2="-0.000259399" stroke="#FA64B2"/>
<line x1="79.5005" y1="10.4082" x2="79.5005" y2="-0.000259399" stroke="#FA64B2"/>
<line x1="87.5005" y1="10.4082" x2="87.5005" y2="-0.000259399" stroke="#FA64B2"/>
<line x1="95.5005" y1="10.4082" x2="95.5005" y2="-0.000259399" stroke="#FA64B2"/>
<line x1="103.5" y1="10.4082" x2="103.5" y2="-0.000259399" stroke="#FA64B2"/>
<line x1="111.5" y1="10.4082" x2="111.5" y2="-0.000259399" stroke="#FA64B2"/>
<line x1="119.5" y1="10.4082" x2="119.5" y2="-0.000259399" stroke="#FA64B2"/>
<line x1="127.5" y1="10.4082" x2="127.5" y2="-0.000259399" stroke="#FA64B2"/>
<line x1="135.5" y1="10.4082" x2="135.5" y2="-0.000259399" stroke="#FA64B2"/>
<line x1="143.5" y1="10.4082" x2="143.5" y2="-0.000259399" stroke="#FA64B2"/>
<line x1="151.5" y1="10.4082" x2="151.5" y2="-0.000259399" stroke="#FA64B2"/>
<line x1="159.5" y1="10.4082" x2="159.5" y2="-0.000259399" stroke="#FA64B2"/>
<line x1="167.5" y1="10.4082" x2="167.5" y2="-0.000259399" stroke="#FA64B2"/>
<line x1="175.5" y1="10.4082" x2="175.5" y2="-0.000259399" stroke="#FA64B2"/>
<line x1="183.5" y1="10.4082" x2="183.5" y2="-0.000259399" stroke="#FA64B2"/>
<line x1="191.5" y1="10.4082" x2="191.5" y2="-0.000259399" stroke="#FA64B2"/>
<line x1="199.5" y1="10.4082" x2="199.5" y2="-0.000259399" stroke="#FA64B2"/>
<line x1="207.5" y1="10.4082" x2="207.5" y2="-0.000259399" stroke="#FA64B2"/>
<line x1="215.5" y1="10.4082" x2="215.5" y2="-0.000259399" stroke="#FA64B2"/>
<line x1="223.5" y1="10.4082" x2="223.5" y2="-0.000259399" stroke="#FA64B2"/>
<line x1="231.5" y1="10.4082" x2="231.5" y2="-0.000259399" stroke="#FA64B2"/>
<line x1="239.5" y1="10.4082" x2="239.5" y2="-0.000259399" stroke="#FA64B2"/>
<line x1="247.5" y1="10.4082" x2="247.5" y2="-0.000259399" stroke="#FA64B2"/>
<line x1="255.5" y1="10.4082" x2="255.5" y2="-0.000259399" stroke="#FA64B2"/>
<line x1="263.5" y1="10.4082" x2="263.5" y2="-0.000259399" stroke="#FA64B2"/>
<line x1="271.5" y1="10.4082" x2="271.5" y2="-0.000259399" stroke="#FA64B2"/>
</g>
<defs>
<clipPath id="clip0_113955_30756">
<rect width="272" height="10.4085" fill="white" transform="translate(0.000488281)"/>
</clipPath>
</defs>
</svg>
