<svg width="9" height="273" viewBox="0 0 9 273" fill="none" xmlns="http://www.w3.org/2000/svg">
<g clip-path="url(#clip0_114018_31875)">
<line x1="9" y1="265.424" y2="265.424" stroke="#FA64B2"/>
<line x1="9" y1="257.424" y2="257.424" stroke="#FA64B2"/>
<line x1="9" y1="249.424" y2="249.424" stroke="#FA64B2"/>
<line x1="9" y1="241.424" y2="241.424" stroke="#FA64B2"/>
<line x1="9" y1="233.424" y2="233.424" stroke="#FA64B2"/>
<line x1="9" y1="225.424" y2="225.424" stroke="#FA64B2"/>
<line x1="9" y1="217.424" y2="217.424" stroke="#FA64B2"/>
<line x1="9" y1="209.424" y2="209.424" stroke="#FA64B2"/>
<line x1="9" y1="201.424" y2="201.424" stroke="#FA64B2"/>
<line x1="9" y1="193.424" y2="193.424" stroke="#FA64B2"/>
<line x1="9" y1="185.424" y2="185.424" stroke="#FA64B2"/>
<line x1="9" y1="177.424" y2="177.424" stroke="#FA64B2"/>
<line x1="9" y1="169.424" y2="169.424" stroke="#FA64B2"/>
<line x1="9" y1="161.424" y2="161.424" stroke="#FA64B2"/>
<line x1="9" y1="153.424" y2="153.424" stroke="#FA64B2"/>
<line x1="9" y1="145.424" y2="145.424" stroke="#FA64B2"/>
<line x1="9" y1="137.424" y2="137.424" stroke="#FA64B2"/>
<line x1="9" y1="129.424" y2="129.424" stroke="#FA64B2"/>
<line x1="9" y1="121.424" y2="121.424" stroke="#FA64B2"/>
<line x1="9" y1="113.424" y2="113.424" stroke="#FA64B2"/>
<line x1="9" y1="105.424" y2="105.424" stroke="#FA64B2"/>
<line x1="9" y1="97.4238" y2="97.4238" stroke="#FA64B2"/>
<line x1="9" y1="89.4238" y2="89.4238" stroke="#FA64B2"/>
<line x1="9" y1="81.4238" y2="81.4238" stroke="#FA64B2"/>
<line x1="9" y1="73.4238" y2="73.4238" stroke="#FA64B2"/>
<line x1="9" y1="65.4238" y2="65.4238" stroke="#FA64B2"/>
<line x1="9" y1="57.4238" y2="57.4238" stroke="#FA64B2"/>
<line x1="9" y1="49.4238" y2="49.4238" stroke="#FA64B2"/>
<line x1="9" y1="41.4238" y2="41.4238" stroke="#FA64B2"/>
<line x1="9" y1="33.4238" y2="33.4238" stroke="#FA64B2"/>
<line x1="9" y1="25.4238" y2="25.4238" stroke="#FA64B2"/>
<line x1="9" y1="17.4238" y2="17.4238" stroke="#FA64B2"/>
<line x1="9" y1="9.42383" y2="9.42383" stroke="#FA64B2"/>
<line x1="9" y1="1.42383" y2="1.42383" stroke="#FA64B2"/>
</g>
<defs>
<clipPath id="clip0_114018_31875">
<rect width="272" height="9" fill="white" transform="matrix(0 -1 1 0 0 272.924)"/>
</clipPath>
</defs>
</svg>
