<svg width="21" height="20" viewBox="0 0 21 20" fill="none" xmlns="http://www.w3.org/2000/svg">
<path d="M19.25 9.99999C19.2505 10.2122 19.1961 10.4209 19.0921 10.6059C18.988 10.7908 18.8379 10.9457 18.6562 11.0555L7.4 17.9414C7.21022 18.0576 6.99287 18.121 6.77037 18.1252C6.54788 18.1293 6.32832 18.0739 6.13438 17.9648C5.94227 17.8574 5.78225 17.7008 5.67075 17.511C5.55926 17.3213 5.50032 17.1052 5.5 16.8851V3.11484C5.50032 2.89475 5.55926 2.67871 5.67075 2.48896C5.78225 2.2992 5.94227 2.14256 6.13438 2.03515C6.32832 1.92605 6.54788 1.8707 6.77037 1.87482C6.99287 1.87894 7.21022 1.94238 7.4 2.05859L18.6562 8.94452C18.8379 9.05427 18.988 9.20915 19.0921 9.3941C19.1961 9.57905 19.2505 9.78778 19.25 9.99999Z" fill="white"/>
</svg>
