<svg width="18" height="18" viewBox="0 0 18 18" fill="none" xmlns="http://www.w3.org/2000/svg">
<path d="M15.875 2.125H9.625V0.875C9.625 0.70924 9.55915 0.550268 9.44194 0.433058C9.32473 0.315848 9.16576 0.25 9 0.25C8.83424 0.25 8.67527 0.315848 8.55806 0.433058C8.44085 0.550268 8.375 0.70924 8.375 0.875V2.125H2.125C1.79348 2.125 1.47554 2.2567 1.24112 2.49112C1.0067 2.72554 0.875 3.04348 0.875 3.375V12.75C0.875 13.0815 1.0067 13.3995 1.24112 13.6339C1.47554 13.8683 1.79348 14 2.125 14H5.2L3.51172 16.1094C3.40812 16.2389 3.36021 16.4042 3.37852 16.5691C3.39683 16.7339 3.47987 16.8847 3.60938 16.9883C3.73888 17.0919 3.90423 17.1398 4.06905 17.1215C4.23388 17.1032 4.38468 17.0201 4.48828 16.8906L6.8 14H11.2L13.5117 16.8906C13.563 16.9547 13.6264 17.0081 13.6984 17.0477C13.7703 17.0874 13.8493 17.1124 13.9309 17.1215C14.0126 17.1305 14.0952 17.1235 14.174 17.1006C14.2529 17.0777 14.3265 17.0396 14.3906 16.9883C14.4547 16.937 14.5081 16.8736 14.5477 16.8016C14.5874 16.7297 14.6124 16.6507 14.6215 16.5691C14.6305 16.4874 14.6235 16.4048 14.6006 16.326C14.5777 16.2471 14.5396 16.1735 14.4883 16.1094L12.8 14H15.875C16.2065 14 16.5245 13.8683 16.7589 13.6339C16.9933 13.3995 17.125 13.0815 17.125 12.75V3.375C17.125 3.04348 16.9933 2.72554 16.7589 2.49112C16.5245 2.2567 16.2065 2.125 15.875 2.125ZM15.875 12.75H2.125V3.375H15.875V12.75Z" fill="#131313"/>
</svg>
