<svg width="20" height="21" viewBox="0 0 20 21" fill="none" xmlns="http://www.w3.org/2000/svg">
<path d="M10 6.75003C9.25835 6.75003 8.53332 6.96996 7.91664 7.38202C7.29995 7.79407 6.81931 8.37974 6.53548 9.06496C6.25165 9.75019 6.17739 10.5042 6.32208 11.2316C6.46678 11.959 6.82393 12.6272 7.34838 13.1517C7.87282 13.6761 8.54101 14.0333 9.26844 14.178C9.99587 14.3227 10.7499 14.2484 11.4351 13.9646C12.1203 13.6807 12.706 13.2001 13.118 12.5834C13.5301 11.9667 13.75 11.2417 13.75 10.5C13.749 9.50578 13.3536 8.55256 12.6505 7.84952C11.9475 7.14648 10.9943 6.75106 10 6.75003ZM10 13C9.50557 13 9.02222 12.8534 8.6111 12.5787C8.19998 12.304 7.87955 11.9136 7.69033 11.4567C7.50111 10.9999 7.4516 10.4973 7.54806 10.0123C7.64453 9.52735 7.88263 9.08189 8.23226 8.73226C8.58189 8.38263 9.02735 8.14453 9.5123 8.04806C9.99725 7.9516 10.4999 8.00111 10.9567 8.19033C11.4135 8.37955 11.804 8.69998 12.0787 9.1111C12.3534 9.52222 12.5 10.0056 12.5 10.5C12.5 11.1631 12.2366 11.799 11.7678 12.2678C11.299 12.7366 10.6631 13 10 13ZM18.5891 8.87581C18.5717 8.7878 18.5355 8.70456 18.4831 8.63177C18.4306 8.55897 18.3632 8.49832 18.2852 8.45393L15.9547 7.12581L15.9453 4.49924C15.9451 4.40879 15.9251 4.31947 15.887 4.23746C15.8488 4.15545 15.7933 4.0827 15.7242 4.02424C14.8789 3.30916 13.9054 2.76117 12.8555 2.4094C12.7728 2.38142 12.6852 2.37106 12.5983 2.379C12.5113 2.38694 12.427 2.413 12.3508 2.45549L10 3.76956L7.6469 2.45315C7.57061 2.41041 7.48621 2.38416 7.39914 2.37608C7.31207 2.36801 7.22428 2.37829 7.14143 2.40628C6.09233 2.76062 5.11994 3.3107 4.27581 4.02737C4.20688 4.08574 4.15142 4.15836 4.11325 4.24023C4.07508 4.3221 4.05511 4.41126 4.05471 4.50159L4.043 7.1305L1.71253 8.45862C1.63456 8.50301 1.56706 8.56366 1.51462 8.63646C1.46218 8.70925 1.42603 8.79248 1.40862 8.8805C1.19534 9.95228 1.19534 11.0556 1.40862 12.1274C1.42603 12.2154 1.46218 12.2986 1.51462 12.3714C1.56706 12.4442 1.63456 12.5049 1.71253 12.5492L4.043 13.8774L4.05237 16.5039C4.05265 16.5944 4.07257 16.6837 4.11074 16.7657C4.14891 16.8477 4.20443 16.9205 4.27346 16.9789C5.11883 17.694 6.09234 18.242 7.14221 18.5938C7.22489 18.6218 7.31252 18.6321 7.39944 18.6242C7.48636 18.6162 7.57066 18.5902 7.6469 18.5477L10 17.2305L12.3532 18.5469C12.4463 18.5988 12.5512 18.6257 12.6578 18.625C12.7261 18.625 12.7939 18.6139 12.8586 18.5922C13.9076 18.2383 14.88 17.6888 15.7242 16.9727C15.7932 16.9143 15.8486 16.8417 15.8868 16.7598C15.925 16.678 15.9449 16.5888 15.9453 16.4985L15.9571 13.8696L18.2875 12.5414C18.3655 12.497 18.433 12.4364 18.4854 12.3636C18.5379 12.2908 18.574 12.2076 18.5914 12.1196C18.8035 11.0486 18.8027 9.94643 18.5891 8.87581ZM17.4172 11.6032L15.1852 12.8727C15.0874 12.9283 15.0064 13.0093 14.9508 13.1071C14.9055 13.1852 14.8578 13.268 14.8094 13.3461C14.7474 13.4446 14.7144 13.5586 14.7141 13.675L14.7024 16.1946C14.1024 16.6657 13.434 17.0424 12.7203 17.3117L10.4688 16.0571C10.3753 16.0053 10.2701 15.9784 10.1633 15.9789H10.1485C10.0539 15.9789 9.95862 15.9789 9.86409 15.9789C9.75228 15.9761 9.64174 16.0031 9.54378 16.0571L7.29065 17.3149C6.57543 17.0476 5.9052 16.6727 5.30315 16.2032L5.29456 13.6875C5.29417 13.5709 5.26116 13.4567 5.19925 13.3578C5.15081 13.2797 5.10315 13.2016 5.05862 13.1188C5.0034 13.0195 4.92244 12.9369 4.82425 12.8797L2.58987 11.6071C2.47424 10.8757 2.47424 10.1306 2.58987 9.39925L4.818 8.12737C4.91579 8.07176 4.99676 7.99079 5.05237 7.89299C5.09768 7.81487 5.14534 7.73206 5.19378 7.65393C5.25578 7.55541 5.28881 7.44143 5.28909 7.32503L5.30081 4.80549C5.90075 4.33436 6.56914 3.95762 7.28284 3.68831L9.53128 4.94299C9.62913 4.99724 9.73975 5.02422 9.85159 5.02112C9.94612 5.02112 10.0414 5.02112 10.136 5.02112C10.2478 5.02391 10.3583 4.99695 10.4563 4.94299L12.7094 3.68518C13.4246 3.95243 14.0949 4.32732 14.6969 4.7969L14.7055 7.31253C14.7059 7.42916 14.7389 7.54336 14.8008 7.64221C14.8492 7.72034 14.8969 7.79846 14.9414 7.88128C14.9966 7.98058 15.0776 8.06317 15.1758 8.12034L17.4102 9.393C17.5274 10.125 17.5287 10.8708 17.4141 11.6032H17.4172Z" fill="#131313"/>
</svg>
