<svg width="20" height="20" viewBox="0 0 20 20" fill="none" xmlns="http://www.w3.org/2000/svg">
<path d="M13.7497 12.5C13.3328 12.4999 12.9201 12.5834 12.536 12.7456C12.1519 12.9079 11.8043 13.1455 11.5138 13.4445L7.9122 11.1297C8.1955 10.4032 8.1955 9.5968 7.9122 8.87031L11.5138 6.55547C12.0547 7.10962 12.7822 7.44317 13.5551 7.49143C14.3281 7.53969 15.0914 7.29923 15.6971 6.81668C16.3028 6.33412 16.7078 5.64384 16.8335 4.87968C16.9592 4.11551 16.7966 3.3319 16.3774 2.68076C15.9581 2.02962 15.312 1.55735 14.5644 1.35551C13.8167 1.15366 13.0207 1.23663 12.3307 1.58832C11.6408 1.94002 11.106 2.53538 10.83 3.25898C10.5541 3.98258 10.5566 4.78287 10.8372 5.50469L7.23564 7.81953C6.80194 7.37428 6.24531 7.06847 5.63692 6.94121C5.02852 6.81394 4.39599 6.87099 3.82019 7.10508C3.24438 7.33916 2.75147 7.73964 2.40445 8.25531C2.05743 8.77099 1.87207 9.37843 1.87207 10C1.87207 10.6216 2.05743 11.229 2.40445 11.7447C2.75147 12.2604 3.24438 12.6608 3.82019 12.8949C4.39599 13.129 5.02852 13.1861 5.63692 13.0588C6.24531 12.9315 6.80194 12.6257 7.23564 12.1805L10.8372 14.4953C10.5959 15.1176 10.5602 15.8008 10.7353 16.4448C10.9104 17.0889 11.2871 17.6599 11.8102 18.0744C12.3334 18.4889 12.9755 18.725 13.6425 18.7481C14.3095 18.7713 14.9664 18.5802 15.517 18.203C16.0676 17.8258 16.483 17.2822 16.7023 16.6519C16.9216 16.0215 16.9334 15.3375 16.7358 14.7C16.5383 14.0625 16.1418 13.5049 15.6044 13.1091C15.0671 12.7132 14.4171 12.4998 13.7497 12.5ZM13.7497 2.5C14.1205 2.5 14.4831 2.60997 14.7914 2.81599C15.0997 3.02202 15.3401 3.31486 15.482 3.65747C15.6239 4.00008 15.661 4.37708 15.5887 4.74079C15.5163 5.10451 15.3377 5.4386 15.0755 5.70083C14.8133 5.96305 14.4792 6.14162 14.1155 6.21397C13.7518 6.28632 13.3748 6.24919 13.0322 6.10727C12.6896 5.96536 12.3967 5.72504 12.1907 5.41669C11.9847 5.10835 11.8747 4.74584 11.8747 4.375C11.8747 3.87772 12.0722 3.40081 12.4239 3.04917C12.7755 2.69754 13.2524 2.5 13.7497 2.5ZM4.9997 11.875C4.62886 11.875 4.26635 11.765 3.95801 11.559C3.64966 11.353 3.40934 11.0601 3.26743 10.7175C3.12551 10.3749 3.08838 9.99792 3.16073 9.6342C3.23307 9.27049 3.41165 8.9364 3.67387 8.67417C3.9361 8.41195 4.27019 8.23337 4.63391 8.16103C4.99762 8.08868 5.37462 8.12581 5.71723 8.26773C6.05984 8.40964 6.35268 8.64996 6.5587 8.95831C6.76473 9.26665 6.8747 9.62916 6.8747 10C6.8747 10.4973 6.67716 10.9742 6.32552 11.3258C5.97389 11.6775 5.49698 11.875 4.9997 11.875ZM13.7497 17.5C13.3789 17.5 13.0163 17.39 12.708 17.184C12.3997 16.978 12.1593 16.6851 12.0174 16.3425C11.8755 15.9999 11.8384 15.6229 11.9107 15.2592C11.9831 14.8955 12.1617 14.5614 12.4239 14.2992C12.6861 14.0369 13.0202 13.8584 13.3839 13.786C13.7476 13.7137 14.1246 13.7508 14.4672 13.8927C14.8098 14.0346 15.1027 14.275 15.3087 14.5833C15.5147 14.8916 15.6247 15.2542 15.6247 15.625C15.6247 16.1223 15.4272 16.5992 15.0755 16.9508C14.7239 17.3025 14.247 17.5 13.7497 17.5Z" fill="#131313"/>
</svg>
