<svg width="16" height="16" viewBox="0 0 16 16" fill="none" xmlns="http://www.w3.org/2000/svg">
<path d="M10 2V14C9.99993 14.0936 9.97361 14.1852 9.92404 14.2646C9.87446 14.3439 9.80362 14.4078 9.71956 14.4488C9.63551 14.4899 9.54161 14.5066 9.44855 14.497C9.35548 14.4873 9.26699 14.4518 9.19312 14.3944L4.82812 11H2C1.73478 11 1.48043 10.8946 1.29289 10.7071C1.10536 10.5196 1 10.2652 1 10V6C1 5.73478 1.10536 5.48043 1.29289 5.29289C1.48043 5.10536 1.73478 5 2 5H4.82812L9.19312 1.60562C9.26699 1.5482 9.35548 1.51266 9.44855 1.50303C9.54161 1.4934 9.63551 1.51008 9.71956 1.55116C9.80362 1.59224 9.87446 1.65609 9.92404 1.73543C9.97361 1.81478 9.99993 1.90644 10 2ZM12 6C11.8674 6 11.7402 6.05268 11.6464 6.14645C11.5527 6.24021 11.5 6.36739 11.5 6.5V9.5C11.5 9.63261 11.5527 9.75978 11.6464 9.85355C11.7402 9.94732 11.8674 10 12 10C12.1326 10 12.2598 9.94732 12.3536 9.85355C12.4473 9.75978 12.5 9.63261 12.5 9.5V6.5C12.5 6.36739 12.4473 6.24021 12.3536 6.14645C12.2598 6.05268 12.1326 6 12 6ZM14 5C13.8674 5 13.7402 5.05268 13.6464 5.14645C13.5527 5.24021 13.5 5.36739 13.5 5.5V10.5C13.5 10.6326 13.5527 10.7598 13.6464 10.8536C13.7402 10.9473 13.8674 11 14 11C14.1326 11 14.2598 10.9473 14.3536 10.8536C14.4473 10.7598 14.5 10.6326 14.5 10.5V5.5C14.5 5.36739 14.4473 5.24021 14.3536 5.14645C14.2598 5.05268 14.1326 5 14 5Z" fill="#FAFAFA"/>
</svg>
