<svg xmlns="http://www.w3.org/2000/svg" style="display:none">
<symbol id="plyr-enter-fullscreen" viewBox="0 0 13 11">

<path d="M12 0H1C0.734784 0 0.48043 0.105357 0.292893 0.292893C0.105357 0.48043 0 0.734784 0 1V10C0 10.2652 0.105357 10.5196 0.292893 10.7071C0.48043 10.8946 0.734784 11 1 11H12C12.2652 11 12.5196 10.8946 12.7071 10.7071C12.8946 10.5196 13 10.2652 13 10V1C13 0.734784 12.8946 0.48043 12.7071 0.292893C12.5196 0.105357 12.2652 0 12 0ZM4 9.5H2C1.86739 9.5 1.74021 9.44732 1.64645 9.35355C1.55268 9.25979 1.5 9.13261 1.5 9V7C1.5 6.86739 1.55268 6.74021 1.64645 6.64645C1.74021 6.55268 1.86739 6.5 2 6.5C2.13261 6.5 2.25979 6.55268 2.35355 6.64645C2.44732 6.74021 2.5 6.86739 2.5 7V8.5H4C4.13261 8.5 4.25979 8.55268 4.35355 8.64645C4.44732 8.74021 4.5 8.86739 4.5 9C4.5 9.13261 4.44732 9.25979 4.35355 9.35355C4.25979 9.44732 4.13261 9.5 4 9.5ZM11.5 4C11.5 4.13261 11.4473 4.25979 11.3536 4.35355C11.2598 4.44732 11.1326 4.5 11 4.5C10.8674 4.5 10.7402 4.44732 10.6464 4.35355C10.5527 4.25979 10.5 4.13261 10.5 4V2.5H9C8.86739 2.5 8.74021 2.44732 8.64645 2.35355C8.55268 2.25979 8.5 2.13261 8.5 2C8.5 1.86739 8.55268 1.74021 8.64645 1.64645C8.74021 1.55268 8.86739 1.5 9 1.5H11C11.1326 1.5 11.2598 1.55268 11.3536 1.64645C11.4473 1.74021 11.5 1.86739 11.5 2V4Z" fill="#FAFAFA"/>

</symbol>
<symbol id="plyr-exit-fullscreen" viewBox="0 0 17 14">

<path d="M13.75 3.125V5.625C13.75 5.79076 13.6842 5.94973 13.5669 6.06694C13.4497 6.18415 13.2908 6.25 13.125 6.25C12.9592 6.25 12.8003 6.18415 12.6831 6.06694C12.5658 5.94973 12.5 5.79076 12.5 5.625V3.75H10.625C10.4592 3.75 10.3003 3.68415 10.1831 3.56694C10.0658 3.44973 10 3.29076 10 3.125C10 2.95924 10.0658 2.80027 10.1831 2.68306C10.3003 2.56585 10.4592 2.5 10.625 2.5H13.125C13.2908 2.5 13.4497 2.56585 13.5669 2.68306C13.6842 2.80027 13.75 2.95924 13.75 3.125ZM5.625 10H3.75V8.125C3.75 7.95924 3.68415 7.80027 3.56694 7.68306C3.44973 7.56585 3.29076 7.5 3.125 7.5C2.95924 7.5 2.80027 7.56585 2.68306 7.68306C2.56585 7.80027 2.5 7.95924 2.5 8.125V10.625C2.5 10.7908 2.56585 10.9497 2.68306 11.0669C2.80027 11.1842 2.95924 11.25 3.125 11.25H5.625C5.79076 11.25 5.94973 11.1842 6.06694 11.0669C6.18415 10.9497 6.25 10.7908 6.25 10.625C6.25 10.4592 6.18415 10.3003 6.06694 10.1831C5.94973 10.0658 5.79076 10 5.625 10ZM16.25 1.25V12.5C16.25 12.8315 16.1183 13.1495 15.8839 13.3839C15.6495 13.6183 15.3315 13.75 15 13.75H1.25C0.918479 13.75 0.600537 13.6183 0.366116 13.3839C0.131696 13.1495 0 12.8315 0 12.5V1.25C0 0.918479 0.131696 0.600537 0.366116 0.366116C0.600537 0.131696 0.918479 0 1.25 0H15C15.3315 0 15.6495 0.131696 15.8839 0.366116C16.1183 0.600537 16.25 0.918479 16.25 1.25ZM15 12.5V1.25H1.25V12.5H15Z" fill="white"/>

</symbol>
<symbol id="plyr-mute" viewBox="0 0 17 17">

<path d="M13.125 9.99953V6.24953C13.125 6.08377 13.1908 5.9248 13.3081 5.80759C13.4253 5.69038 13.5842 5.62453 13.75 5.62453C13.9158 5.62453 14.0747 5.69038 14.1919 5.80759C14.3092 5.9248 14.375 6.08377 14.375 6.24953V9.99953C14.375 10.1653 14.3092 10.3243 14.1919 10.4415C14.0747 10.5587 13.9158 10.6245 13.75 10.6245C13.5842 10.6245 13.4253 10.5587 13.3081 10.4415C13.1908 10.3243 13.125 10.1653 13.125 9.99953ZM16.25 4.37453C16.0842 4.37453 15.9253 4.44038 15.8081 4.55759C15.6908 4.6748 15.625 4.83377 15.625 4.99953V11.2495C15.625 11.4153 15.6908 11.5743 15.8081 11.6915C15.9253 11.8087 16.0842 11.8745 16.25 11.8745C16.4158 11.8745 16.5747 11.8087 16.6919 11.6915C16.8092 11.5743 16.875 11.4153 16.875 11.2495V4.99953C16.875 4.83377 16.8092 4.6748 16.6919 4.55759C16.5747 4.44038 16.4158 4.37453 16.25 4.37453ZM15.4625 14.5792C15.5189 14.6398 15.5626 14.7109 15.5913 14.7885C15.62 14.866 15.6329 14.9485 15.6295 15.0312C15.626 15.1138 15.6062 15.1949 15.5712 15.2698C15.5361 15.3448 15.4866 15.412 15.4254 15.4676C15.3642 15.5232 15.2925 15.5662 15.2146 15.5939C15.1367 15.6216 15.0541 15.6336 14.9715 15.6292C14.8889 15.6247 14.808 15.6039 14.7335 15.568C14.659 15.5321 14.5924 15.4817 14.5375 15.4198L11.25 11.8034V15.6245C11.2499 15.7415 11.217 15.8561 11.155 15.9552C11.0931 16.0544 11.0045 16.1342 10.8995 16.1856C10.7944 16.2369 10.677 16.2578 10.5607 16.2457C10.4444 16.2337 10.3337 16.1893 10.2414 16.1175L4.78516 11.8745H1.25C0.918479 11.8745 0.600537 11.7428 0.366116 11.5084C0.131696 11.274 0 10.9561 0 10.6245V5.62453C0 5.29301 0.131696 4.97507 0.366116 4.74065C0.600537 4.50623 0.918479 4.37453 1.25 4.37453H4.49609L2.0375 1.66984C1.98115 1.60931 1.93737 1.53819 1.9087 1.46061C1.88004 1.38303 1.86705 1.30053 1.8705 1.2179C1.87396 1.13526 1.89378 1.05413 1.92881 0.979215C1.96385 0.904296 2.01341 0.837077 2.07462 0.781453C2.13582 0.725828 2.20746 0.682905 2.28538 0.655172C2.3633 0.627438 2.44595 0.615445 2.52854 0.619888C2.61112 0.624331 2.69201 0.645122 2.7665 0.681055C2.84099 0.716988 2.90761 0.767349 2.9625 0.829219L15.4625 14.5792ZM10 10.4284L5.63281 5.62453H1.25V10.6245H5C5.13905 10.6243 5.27414 10.6708 5.38359 10.7566L10 14.3464V10.4284ZM7.89531 3.53937L10 1.89875V6.46672C10 6.63248 10.0658 6.79145 10.1831 6.90866C10.3003 7.02587 10.4592 7.09172 10.625 7.09172C10.7908 7.09172 10.9497 7.02587 11.0669 6.90866C11.1842 6.79145 11.25 6.63248 11.25 6.46672V0.624531C11.2499 0.507583 11.217 0.393005 11.155 0.293824C11.0931 0.194643 11.0045 0.114838 10.8995 0.0634834C10.7944 0.0121285 10.677 -0.00871641 10.5607 0.0033185C10.4444 0.0153534 10.3337 0.0597854 10.2414 0.131563L7.12812 2.55344C6.9999 2.65606 6.91722 2.80504 6.89797 2.96814C6.87872 3.13124 6.92444 3.29537 7.02525 3.42503C7.12606 3.55469 7.27386 3.63945 7.43668 3.661C7.59949 3.68254 7.76425 3.63913 7.89531 3.54016V3.53937Z" fill="white"/>

</symbol>
<symbol id="plyr-pause" viewBox="0 0 11 12">

<path d="M11 1V11C11 11.2652 10.8946 11.5196 10.7071 11.7071C10.5196 11.8946 10.2652 12 10 12H7.5C7.23478 12 6.98043 11.8946 6.79289 11.7071C6.60536 11.5196 6.5 11.2652 6.5 11V1C6.5 0.734784 6.60536 0.48043 6.79289 0.292893C6.98043 0.105357 7.23478 0 7.5 0H10C10.2652 0 10.5196 0.105357 10.7071 0.292893C10.8946 0.48043 11 0.734784 11 1ZM3.5 0H1C0.734784 0 0.48043 0.105357 0.292893 0.292893C0.105357 0.48043 0 0.734784 0 1V11C0 11.2652 0.105357 11.5196 0.292893 11.7071C0.48043 11.8946 0.734784 12 1 12H3.5C3.76522 12 4.01957 11.8946 4.20711 11.7071C4.39464 11.5196 4.5 11.2652 4.5 11V1C4.5 0.734784 4.39464 0.48043 4.20711 0.292893C4.01957 0.105357 3.76522 0 3.5 0Z" fill="#FAFAFA"/>

</symbol>
<symbol id="plyr-play" viewBox="0 0 14 17">

<path d="M13.75 8.12539C13.7505 8.3376 13.6961 8.54633 13.5921 8.73128C13.488 8.91623 13.3379 9.07111 13.1562 9.18086L1.9 16.0668C1.71022 16.183 1.49287 16.2464 1.27037 16.2506C1.04788 16.2547 0.828324 16.1993 0.634375 16.0902C0.442273 15.9828 0.282247 15.8262 0.170753 15.6364C0.0592589 15.4467 0.000320983 15.2306 0 15.0105V1.24023C0.000320983 1.02014 0.0592589 0.804111 0.170753 0.614352C0.282247 0.424592 0.442273 0.267954 0.634375 0.160546C0.828324 0.0514435 1.04788 -0.00390588 1.27037 0.000214333C1.49287 0.00433455 1.71022 0.0677751 1.9 0.183984L13.1562 7.06992C13.3379 7.17966 13.488 7.33454 13.5921 7.5195C13.6961 7.70445 13.7505 7.91318 13.75 8.12539Z" fill="white"/>

</symbol>
<symbol id="plyr-settings" viewBox="0 0 14 13">

<path d="M13.8723 5.20192C13.8584 5.13151 13.8295 5.06492 13.7875 5.00668C13.7456 4.94845 13.6916 4.89992 13.6292 4.86442L11.7648 3.80191L11.7573 1.70066C11.7571 1.6283 11.7412 1.55684 11.7106 1.49124C11.6801 1.42563 11.6357 1.36743 11.5805 1.32067C10.9042 0.748601 10.1254 0.310206 9.28547 0.0287901C9.21933 0.00640254 9.14923 -0.00188252 9.07969 0.00446859C9.01015 0.0108197 8.94271 0.0316661 8.88172 0.0656652L7.0011 1.11691L5.1186 0.0637901C5.05757 0.0295996 4.99004 0.00859577 4.92039 0.00213626C4.85073 -0.00432325 4.7805 0.00390532 4.71422 0.0262901C3.87483 0.309514 3.09687 0.749606 2.42172 1.32317C2.36658 1.36986 2.32221 1.42796 2.29167 1.49345C2.26114 1.55895 2.24516 1.63028 2.24485 1.70254L2.23547 3.80567L0.371096 4.86817C0.308721 4.90368 0.254723 4.9522 0.212772 5.01043C0.17082 5.06867 0.141897 5.13526 0.127971 5.20567C-0.0426569 6.06309 -0.0426569 6.94574 0.127971 7.80317C0.141897 7.87357 0.17082 7.94016 0.212772 7.9984C0.254723 8.05663 0.308721 8.10516 0.371096 8.14067L2.23547 9.20317L2.24297 11.305C2.2432 11.3774 2.25913 11.4489 2.28967 11.5145C2.3202 11.5801 2.36462 11.6383 2.41985 11.685C3.09614 12.2571 3.87494 12.6955 4.71485 12.9769C4.78099 12.9993 4.85109 13.0076 4.92063 13.0012C4.99016 12.9949 5.0576 12.974 5.1186 12.94L7.0011 11.8857L8.8836 12.9388C8.95809 12.9803 9.04207 13.0018 9.12735 13.0013C9.18195 13.0013 9.2362 12.9924 9.28797 12.975C10.1272 12.6919 10.9051 12.2523 11.5805 11.6794C11.6356 11.6327 11.68 11.5746 11.7105 11.5091C11.7411 11.4436 11.757 11.3723 11.7573 11.3L11.7667 9.19692L13.6311 8.13442C13.6935 8.09891 13.7475 8.05038 13.7894 7.99215C13.8314 7.93391 13.8603 7.86732 13.8742 7.79692C14.0439 6.94017 14.0433 6.05841 13.8723 5.20192ZM7.0011 9.00129C6.50664 9.00129 6.02329 8.85467 5.61217 8.57996C5.20105 8.30526 4.88062 7.91481 4.6914 7.458C4.50218 7.00118 4.45267 6.49852 4.54913 6.01356C4.64559 5.52861 4.8837 5.08315 5.23333 4.73352C5.58296 4.38389 6.02842 4.14579 6.51337 4.04933C6.99832 3.95286 7.50099 4.00237 7.9578 4.19159C8.41462 4.38081 8.80507 4.70124 9.07977 5.11236C9.35447 5.52349 9.5011 6.00684 9.5011 6.50129C9.5011 7.16433 9.2377 7.80022 8.76886 8.26906C8.30002 8.7379 7.66414 9.00129 7.0011 9.00129Z" fill="#FAFAFA"/>

</symbol>
<symbol id="plyr-volume-max" viewBox="0 0 14 13">

<path d="M9 0.499625V12.4996C8.99993 12.5932 8.97361 12.6848 8.92404 12.7642C8.87446 12.8435 8.80362 12.9074 8.71956 12.9485C8.63551 12.9895 8.54161 13.0062 8.44855 12.9966C8.35548 12.987 8.26699 12.9514 8.19312 12.894L3.82812 9.49963H1C0.734784 9.49963 0.48043 9.39427 0.292893 9.20673C0.105357 9.0192 0 8.76484 0 8.49963V4.49963C0 4.23441 0.105357 3.98005 0.292893 3.79252C0.48043 3.60498 0.734784 3.49963 1 3.49963H3.82812L8.19312 0.10525C8.26699 0.0478283 8.35548 0.0122827 8.44855 0.0026548C8.54161 -0.00697313 8.63551 0.00970283 8.71956 0.0507867C8.80362 0.0918707 8.87446 0.155714 8.92404 0.235059C8.97361 0.314404 8.99993 0.406066 9 0.499625ZM11 4.49963C10.8674 4.49963 10.7402 4.5523 10.6464 4.64607C10.5527 4.73984 10.5 4.86702 10.5 4.99963V7.99963C10.5 8.13223 10.5527 8.25941 10.6464 8.35318C10.7402 8.44695 10.8674 8.49963 11 8.49963C11.1326 8.49963 11.2598 8.44695 11.3536 8.35318C11.4473 8.25941 11.5 8.13223 11.5 7.99963V4.99963C11.5 4.86702 11.4473 4.73984 11.3536 4.64607C11.2598 4.5523 11.1326 4.49963 11 4.49963ZM13 3.49963C12.8674 3.49963 12.7402 3.5523 12.6464 3.64607C12.5527 3.73984 12.5 3.86702 12.5 3.99963V8.99963C12.5 9.13223 12.5527 9.25941 12.6464 9.35318C12.7402 9.44695 12.8674 9.49963 13 9.49963C13.1326 9.49963 13.2598 9.44695 13.3536 9.35318C13.4473 9.25941 13.5 9.13223 13.5 8.99963V3.99963C13.5 3.86702 13.4473 3.73984 13.3536 3.64607C13.2598 3.5523 13.1326 3.49963 13 3.49963Z" fill="#FAFAFA"/>

</symbol>
</svg>