<svg width="14" height="15" viewBox="0 0 14 15" fill="none" xmlns="http://www.w3.org/2000/svg">
<path d="M11.8125 3.125H9.625V2.6875C9.625 2.3394 9.48672 2.00556 9.24058 1.75942C8.99444 1.51328 8.6606 1.375 8.3125 1.375H5.6875C5.3394 1.375 5.00556 1.51328 4.75942 1.75942C4.51328 2.00556 4.375 2.3394 4.375 2.6875V3.125H2.1875C2.07147 3.125 1.96019 3.17109 1.87814 3.25314C1.79609 3.33519 1.75 3.44647 1.75 3.5625C1.75 3.67853 1.79609 3.78981 1.87814 3.87186C1.96019 3.95391 2.07147 4 2.1875 4H2.625V11.875C2.625 12.1071 2.71719 12.3296 2.88128 12.4937C3.04538 12.6578 3.26794 12.75 3.5 12.75H10.5C10.7321 12.75 10.9546 12.6578 11.1187 12.4937C11.2828 12.3296 11.375 12.1071 11.375 11.875V4H11.8125C11.9285 4 12.0398 3.95391 12.1219 3.87186C12.2039 3.78981 12.25 3.67853 12.25 3.5625C12.25 3.44647 12.2039 3.33519 12.1219 3.25314C12.0398 3.17109 11.9285 3.125 11.8125 3.125ZM6.125 9.6875C6.125 9.80353 6.07891 9.91481 5.99686 9.99686C5.91481 10.0789 5.80353 10.125 5.6875 10.125C5.57147 10.125 5.46019 10.0789 5.37814 9.99686C5.29609 9.91481 5.25 9.80353 5.25 9.6875V6.1875C5.25 6.07147 5.29609 5.96019 5.37814 5.87814C5.46019 5.79609 5.57147 5.75 5.6875 5.75C5.80353 5.75 5.91481 5.79609 5.99686 5.87814C6.07891 5.96019 6.125 6.07147 6.125 6.1875V9.6875ZM8.75 9.6875C8.75 9.80353 8.70391 9.91481 8.62186 9.99686C8.53981 10.0789 8.42853 10.125 8.3125 10.125C8.19647 10.125 8.08519 10.0789 8.00314 9.99686C7.92109 9.91481 7.875 9.80353 7.875 9.6875V6.1875C7.875 6.07147 7.92109 5.96019 8.00314 5.87814C8.08519 5.79609 8.19647 5.75 8.3125 5.75C8.42853 5.75 8.53981 5.79609 8.62186 5.87814C8.70391 5.96019 8.75 6.07147 8.75 6.1875V9.6875ZM8.75 3.125H5.25V2.6875C5.25 2.57147 5.29609 2.46019 5.37814 2.37814C5.46019 2.29609 5.57147 2.25 5.6875 2.25H8.3125C8.42853 2.25 8.53981 2.29609 8.62186 2.37814C8.70391 2.46019 8.75 2.57147 8.75 2.6875V3.125Z" fill="#C35554"/>
</svg>
