<svg width="9" height="272" viewBox="0 0 9 272" fill="none" xmlns="http://www.w3.org/2000/svg">
<g opacity="0.5" clip-path="url(#clip0_113955_30719)">
<line x1="9" y1="264.5" y2="264.5" stroke="#FFFCEF"/>
<line x1="9" y1="256.5" y2="256.5" stroke="#FFFCEF"/>
<line x1="9" y1="248.5" y2="248.5" stroke="#FFFCEF"/>
<line x1="9" y1="240.5" y2="240.5" stroke="#FFFCEF"/>
<line x1="9" y1="232.5" y2="232.5" stroke="#FFFCEF"/>
<line x1="9" y1="224.5" y2="224.5" stroke="#FFFCEF"/>
<line x1="9" y1="216.5" y2="216.5" stroke="#FFFCEF"/>
<line x1="9" y1="208.5" y2="208.5" stroke="#FFFCEF"/>
<line x1="9" y1="200.5" y2="200.5" stroke="#FFFCEF"/>
<line x1="9" y1="192.5" y2="192.5" stroke="#FFFCEF"/>
<line x1="9" y1="184.5" y2="184.5" stroke="#FFFCEF"/>
<line x1="9" y1="176.5" y2="176.5" stroke="#FFFCEF"/>
<line x1="9" y1="168.5" y2="168.5" stroke="#FFFCEF"/>
<line x1="9" y1="160.5" y2="160.5" stroke="#FFFCEF"/>
<line x1="9" y1="152.5" y2="152.5" stroke="#FFFCEF"/>
<line x1="9" y1="144.5" y2="144.5" stroke="#FFFCEF"/>
<line x1="9" y1="136.5" y2="136.5" stroke="#FFFCEF"/>
<line x1="9" y1="128.5" y2="128.5" stroke="#FFFCEF"/>
<line x1="9" y1="120.5" y2="120.5" stroke="#FFFCEF"/>
<line x1="9" y1="112.5" y2="112.5" stroke="#FFFCEF"/>
<line x1="9" y1="104.5" y2="104.5" stroke="#FFFCEF"/>
<line x1="9" y1="96.5" y2="96.5" stroke="#FFFCEF"/>
<line x1="9" y1="88.5" y2="88.5" stroke="#FFFCEF"/>
<line x1="9" y1="80.5" y2="80.5" stroke="#FFFCEF"/>
<line x1="9" y1="72.5" y2="72.5" stroke="#FFFCEF"/>
<line x1="9" y1="64.5" y2="64.5" stroke="#FFFCEF"/>
<line x1="9" y1="56.5" y2="56.5" stroke="#FFFCEF"/>
<line x1="9" y1="48.5" y2="48.5" stroke="#FFFCEF"/>
<line x1="9" y1="40.5" y2="40.5" stroke="#FFFCEF"/>
<line x1="9" y1="32.5" y2="32.5" stroke="#FFFCEF"/>
<line x1="9" y1="24.5" y2="24.5" stroke="#FFFCEF"/>
<line x1="9" y1="16.5" y2="16.5" stroke="#FFFCEF"/>
<line x1="9" y1="8.5" y2="8.5" stroke="#FFFCEF"/>
<line x1="9" y1="0.5" y2="0.5" stroke="#FFFCEF"/>
</g>
<defs>
<clipPath id="clip0_113955_30719">
<rect width="272" height="9" fill="white" transform="matrix(0 -1 1 0 0 272)"/>
</clipPath>
</defs>
</svg>
