<svg width="20" height="21" viewBox="0 0 20 21" fill="none" xmlns="http://www.w3.org/2000/svg">
<path d="M16.0675 15.6828C16.1256 15.7409 16.1717 15.8098 16.2031 15.8857C16.2345 15.9616 16.2507 16.0429 16.2507 16.125C16.2507 16.2071 16.2345 16.2884 16.2031 16.3643C16.1717 16.4402 16.1256 16.5091 16.0675 16.5672C16.0095 16.6253 15.9405 16.6713 15.8647 16.7027C15.7888 16.7342 15.7075 16.7503 15.6253 16.7503C15.5432 16.7503 15.4619 16.7342 15.386 16.7027C15.3102 16.6713 15.2412 16.6253 15.1832 16.5672L10.0003 11.3836L4.81753 16.5672C4.70026 16.6845 4.5412 16.7503 4.37535 16.7503C4.2095 16.7503 4.05044 16.6845 3.93316 16.5672C3.81588 16.4499 3.75 16.2908 3.75 16.125C3.75 15.9591 3.81588 15.8001 3.93316 15.6828L9.11675 10.5L3.93316 5.31718C3.81588 5.19991 3.75 5.04085 3.75 4.875C3.75 4.70914 3.81588 4.55008 3.93316 4.43281C4.05044 4.31553 4.2095 4.24965 4.37535 4.24965C4.5412 4.24965 4.70026 4.31553 4.81753 4.43281L10.0003 9.6164L15.1832 4.43281C15.3004 4.31553 15.4595 4.24965 15.6253 4.24965C15.7912 4.24965 15.9503 4.31553 16.0675 4.43281C16.1848 4.55008 16.2507 4.70914 16.2507 4.875C16.2507 5.04085 16.1848 5.19991 16.0675 5.31718L10.8839 10.5L16.0675 15.6828Z" fill="#131313"/>
</svg>
