<svg width="21" height="20" viewBox="0 0 21 20" fill="none" xmlns="http://www.w3.org/2000/svg">
<path d="M18.3219 11.3391L15.5 9.64609V8.125C15.501 8.01434 15.4726 7.9054 15.4177 7.80932C15.3628 7.71323 15.2833 7.63345 15.1875 7.57812L11.125 5.2625V3.75H12.375C12.5408 3.75 12.6997 3.68415 12.8169 3.56694C12.9342 3.44973 13 3.29076 13 3.125C13 2.95924 12.9342 2.80027 12.8169 2.68306C12.6997 2.56585 12.5408 2.5 12.375 2.5H11.125V1.25C11.125 1.08424 11.0592 0.925268 10.9419 0.808058C10.8247 0.690848 10.6658 0.625 10.5 0.625C10.3342 0.625 10.1753 0.690848 10.0581 0.808058C9.94085 0.925268 9.875 1.08424 9.875 1.25V2.5H8.625C8.45924 2.5 8.30027 2.56585 8.18306 2.68306C8.06585 2.80027 8 2.95924 8 3.125C8 3.29076 8.06585 3.44973 8.18306 3.56694C8.30027 3.68415 8.45924 3.75 8.625 3.75H9.875V5.2625L5.8125 7.58203C5.71666 7.63736 5.63723 7.71714 5.58232 7.81322C5.52742 7.90931 5.49901 8.01825 5.5 8.12891V9.65L2.67812 11.3391C2.58564 11.3946 2.50911 11.4732 2.45599 11.5671C2.40287 11.661 2.37497 11.7671 2.375 11.875V16.875C2.375 17.0408 2.44085 17.1997 2.55806 17.3169C2.67527 17.4342 2.83424 17.5 3 17.5H9.25C9.41576 17.5 9.57473 17.4342 9.69194 17.3169C9.80915 17.1997 9.875 17.0408 9.875 16.875V13.125C9.875 12.9592 9.94085 12.8003 10.0581 12.6831C10.1753 12.5658 10.3342 12.5 10.5 12.5C10.6658 12.5 10.8247 12.5658 10.9419 12.6831C11.0592 12.8003 11.125 12.9592 11.125 13.125V16.875C11.125 17.0408 11.1908 17.1997 11.3081 17.3169C11.4253 17.4342 11.5842 17.5 11.75 17.5H18C18.1658 17.5 18.3247 17.4342 18.4419 17.3169C18.5592 17.1997 18.625 17.0408 18.625 16.875V11.875C18.625 11.7671 18.5971 11.661 18.544 11.5671C18.4909 11.4732 18.4144 11.3946 18.3219 11.3391ZM3.625 12.2289L5.5 11.1039V16.25H3.625V12.2289ZM10.5 11.25C10.0027 11.25 9.52581 11.4475 9.17417 11.7992C8.82254 12.1508 8.625 12.6277 8.625 13.125V16.25H6.75V8.4875L10.5 6.34453L14.25 8.4875V16.25H12.375V13.125C12.375 12.6277 12.1775 12.1508 11.8258 11.7992C11.4742 11.4475 10.9973 11.25 10.5 11.25ZM17.375 16.25H15.5V11.1039L17.375 12.2289V16.25Z" fill="#131313"/>
</svg>
