<svg width="20" height="21" viewBox="0 0 20 21" fill="none" xmlns="http://www.w3.org/2000/svg">
<path d="M13.1253 18C13.1253 18.1658 13.0594 18.3247 12.9422 18.4419C12.825 18.5592 12.666 18.625 12.5003 18.625H7.50027C7.33451 18.625 7.17554 18.5592 7.05833 18.4419C6.94111 18.3247 6.87527 18.1658 6.87527 18C6.87527 17.8342 6.94111 17.6753 7.05833 17.5581C7.17554 17.4408 7.33451 17.375 7.50027 17.375H12.5003C12.666 17.375 12.825 17.4408 12.9422 17.5581C13.0594 17.6753 13.1253 17.8342 13.1253 18ZM17.3323 15.5C17.2239 15.691 17.0664 15.8497 16.8762 15.9595C16.686 16.0694 16.4699 16.1265 16.2503 16.125H3.75027C3.53053 16.1247 3.31475 16.0665 3.12469 15.9562C2.93462 15.846 2.77698 15.6875 2.66765 15.4969C2.55832 15.3063 2.50117 15.0903 2.50196 14.8705C2.50275 14.6508 2.56145 14.4351 2.67214 14.2453C3.10574 13.4984 3.75027 11.3859 3.75027 8.625C3.75027 6.9674 4.40875 5.37769 5.58085 4.20558C6.75295 3.03348 8.34266 2.375 10.0003 2.375C11.6579 2.375 13.2476 3.03348 14.4197 4.20558C15.5918 5.37769 16.2503 6.9674 16.2503 8.625C16.2503 11.3852 16.8956 13.4984 17.3292 14.2453C17.441 14.4354 17.5001 14.6518 17.5005 14.8723C17.5009 15.0929 17.4426 15.3095 17.3315 15.5H17.3323ZM16.2503 14.875C15.6464 13.8383 15.0003 11.4414 15.0003 8.625C15.0003 7.29892 14.4735 6.02715 13.5358 5.08947C12.5981 4.15178 11.3263 3.625 10.0003 3.625C8.67418 3.625 7.40241 4.15178 6.46473 5.08947C5.52705 6.02715 5.00027 7.29892 5.00027 8.625C5.00027 11.4422 4.35339 13.8391 3.75027 14.875H16.2503Z" fill="#131313"/>
</svg>
