<svg width="20" height="21" viewBox="0 0 20 21" fill="none" xmlns="http://www.w3.org/2000/svg">
<path d="M9.99942 6.75003C9.25774 6.75003 8.53271 6.96996 7.91603 7.38202C7.29934 7.79407 6.8187 8.37974 6.53487 9.06496C6.25104 9.75019 6.17678 10.5042 6.32147 11.2316C6.46617 11.959 6.82332 12.6272 7.34777 13.1517C7.87221 13.6761 8.5404 14.0333 9.26783 14.178C9.99526 14.3227 10.7493 14.2484 11.4345 13.9646C12.1197 13.6807 12.7054 13.2001 13.1174 12.5834C13.5295 11.9667 13.7494 11.2417 13.7494 10.5C13.7484 9.50578 13.353 8.55256 12.6499 7.84952C11.9469 7.14648 10.9937 6.75106 9.99942 6.75003ZM9.99942 13C9.50496 13 9.02161 12.8534 8.61049 12.5787C8.19937 12.304 7.87894 11.9136 7.68972 11.4567C7.5005 10.9999 7.45099 10.4973 7.54745 10.0123C7.64392 9.52735 7.88202 9.08189 8.23165 8.73226C8.58128 8.38263 9.02674 8.14453 9.51169 8.04806C9.99664 7.9516 10.4993 8.00111 10.9561 8.19033C11.4129 8.37955 11.8034 8.69998 12.0781 9.1111C12.3528 9.52222 12.4994 10.0056 12.4994 10.5C12.4994 11.1631 12.236 11.799 11.7672 12.2678C11.2983 12.7366 10.6625 13 9.99942 13ZM18.5885 8.87581C18.5711 8.7878 18.5349 8.70456 18.4825 8.63177C18.43 8.55897 18.3625 8.49832 18.2846 8.45393L15.9541 7.12581L15.9447 4.49924C15.9444 4.40879 15.9245 4.31947 15.8864 4.23746C15.8482 4.15545 15.7927 4.0827 15.7236 4.02424C14.8783 3.30916 13.9048 2.76117 12.8549 2.4094C12.7722 2.38142 12.6846 2.37106 12.5977 2.379C12.5107 2.38694 12.4264 2.413 12.3502 2.45549L9.99942 3.76956L7.64629 2.45315C7.57 2.41041 7.4856 2.38416 7.39853 2.37608C7.31146 2.36801 7.22367 2.37829 7.14082 2.40628C6.09172 2.76062 5.11933 3.3107 4.2752 4.02737C4.20627 4.08574 4.15081 4.15836 4.11264 4.24023C4.07447 4.3221 4.0545 4.41126 4.0541 4.50159L4.04239 7.1305L1.71192 8.45862C1.63395 8.50301 1.56645 8.56366 1.51401 8.63646C1.46157 8.70925 1.42542 8.79248 1.40801 8.8805C1.19473 9.95228 1.19473 11.0556 1.40801 12.1274C1.42542 12.2154 1.46157 12.2986 1.51401 12.3714C1.56645 12.4442 1.63395 12.5049 1.71192 12.5492L4.04239 13.8774L4.05176 16.5039C4.05204 16.5944 4.07196 16.6837 4.11013 16.7657C4.1483 16.8477 4.20382 16.9205 4.27285 16.9789C5.11822 17.694 6.09173 18.242 7.1416 18.5938C7.22428 18.6218 7.3119 18.6321 7.39883 18.6242C7.48575 18.6162 7.57005 18.5902 7.64629 18.5477L9.99942 17.2305L12.3525 18.5469C12.4457 18.5988 12.5506 18.6257 12.6572 18.625C12.7255 18.625 12.7933 18.6139 12.858 18.5922C13.907 18.2383 14.8794 17.6888 15.7236 16.9727C15.7926 16.9143 15.848 16.8417 15.8862 16.7598C15.9244 16.678 15.9443 16.5888 15.9447 16.4985L15.9564 13.8696L18.2869 12.5414C18.3649 12.497 18.4324 12.4364 18.4848 12.3636C18.5373 12.2908 18.5734 12.2076 18.5908 12.1196C18.8029 11.0486 18.8021 9.94643 18.5885 8.87581ZM17.4166 11.6032L15.1846 12.8727C15.0868 12.9283 15.0058 13.0093 14.9502 13.1071C14.9049 13.1852 14.8572 13.268 14.8088 13.3461C14.7468 13.4446 14.7138 13.5586 14.7135 13.675L14.7018 16.1946C14.1018 16.6657 13.4334 17.0424 12.7197 17.3117L10.4682 16.0571C10.3747 16.0053 10.2695 15.9784 10.1627 15.9789H10.1479C10.0533 15.9789 9.95801 15.9789 9.86348 15.9789C9.75167 15.9761 9.64113 16.0031 9.54317 16.0571L7.29004 17.3149C6.57481 17.0476 5.90459 16.6727 5.30254 16.2032L5.29395 13.6875C5.29356 13.5709 5.26055 13.4567 5.19864 13.3578C5.1502 13.2797 5.10254 13.2016 5.05801 13.1188C5.00279 13.0195 4.92183 12.9369 4.82364 12.8797L2.58926 11.6071C2.47363 10.8757 2.47363 10.1306 2.58926 9.39925L4.81738 8.12737C4.91518 8.07176 4.99615 7.99079 5.05176 7.89299C5.09707 7.81487 5.14473 7.73206 5.19317 7.65393C5.25517 7.55541 5.2882 7.44143 5.28848 7.32503L5.3002 4.80549C5.90014 4.33436 6.56853 3.95762 7.28223 3.68831L9.53067 4.94299C9.62852 4.99724 9.73914 5.02422 9.85098 5.02112C9.94551 5.02112 10.0408 5.02112 10.1354 5.02112C10.2472 5.02391 10.3577 4.99695 10.4557 4.94299L12.7088 3.68518C13.424 3.95243 14.0942 4.32732 14.6963 4.7969L14.7049 7.31253C14.7053 7.42916 14.7383 7.54336 14.8002 7.64221C14.8486 7.72034 14.8963 7.79846 14.9408 7.88128C14.996 7.98058 15.077 8.06317 15.1752 8.12034L17.4096 9.393C17.5267 10.125 17.5281 10.8708 17.4135 11.6032H17.4166Z" fill="#131313"/>
</svg>
