<svg width="18" height="18" viewBox="0 0 18 18" fill="none" xmlns="http://www.w3.org/2000/svg">
<path d="M17.3858 8.11916L9.88185 0.614467C9.64765 0.381654 9.33083 0.250977 9.0006 0.250977C8.67037 0.250977 8.35355 0.381654 8.11935 0.614467L0.61935 8.11916C0.386537 8.35336 0.255859 8.67017 0.255859 9.0004C0.255859 9.33064 0.386537 9.64745 0.61935 9.88165L8.12326 17.3863C8.35746 17.6192 8.67428 17.7498 9.00451 17.7498C9.33474 17.7498 9.65155 17.6192 9.88576 17.3863L17.3897 9.88165C17.6225 9.64745 17.7532 9.33064 17.7532 9.0004C17.7532 8.67017 17.6225 8.35336 17.3897 8.11916H17.3858ZM8.3756 5.2504C8.3756 5.08464 8.44145 4.92567 8.55866 4.80846C8.67587 4.69125 8.83484 4.6254 9.0006 4.6254C9.16636 4.6254 9.32533 4.69125 9.44254 4.80846C9.55975 4.92567 9.6256 5.08464 9.6256 5.2504V9.6254C9.6256 9.79117 9.55975 9.95014 9.44254 10.0673C9.32533 10.1846 9.16636 10.2504 9.0006 10.2504C8.83484 10.2504 8.67587 10.1846 8.55866 10.0673C8.44145 9.95014 8.3756 9.79117 8.3756 9.6254V5.2504ZM9.0006 13.3754C8.81518 13.3754 8.63393 13.3204 8.47975 13.2174C8.32558 13.1144 8.20542 12.968 8.13446 12.7967C8.06351 12.6254 8.04494 12.4369 8.08111 12.255C8.11729 12.0732 8.20658 11.9061 8.33769 11.775C8.4688 11.6439 8.63585 11.5546 8.8177 11.5184C8.99956 11.4822 9.18806 11.5008 9.35937 11.5718C9.53067 11.6427 9.67709 11.7629 9.7801 11.9171C9.88312 12.0712 9.9381 12.2525 9.9381 12.4379C9.9381 12.6865 9.83933 12.925 9.66351 13.1008C9.4877 13.2766 9.24924 13.3754 9.0006 13.3754Z" fill="#ED366D"/>
</svg>
