<svg width="32" height="32" viewBox="0 0 32 32" fill="none" xmlns="http://www.w3.org/2000/svg">
<path d="M25.7081 24.2924C25.801 24.3854 25.8747 24.4957 25.9249 24.6171C25.9752 24.7384 26.0011 24.8686 26.0011 24.9999C26.0011 25.1313 25.9752 25.2614 25.9249 25.3828C25.8747 25.5042 25.801 25.6145 25.7081 25.7074C25.6151 25.8004 25.5048 25.8741 25.3835 25.9243C25.2621 25.9746 25.132 26.0005 25.0006 26.0005C24.8692 26.0005 24.7391 25.9746 24.6177 25.9243C24.4963 25.8741 24.386 25.8004 24.2931 25.7074L16.0006 17.4137L7.70806 25.7074C7.52042 25.8951 7.26592 26.0005 7.00056 26.0005C6.73519 26.0005 6.4807 25.8951 6.29306 25.7074C6.10542 25.5198 6 25.2653 6 24.9999C6 24.7346 6.10542 24.4801 6.29306 24.2924L14.5868 15.9999L6.29306 7.70745C6.10542 7.5198 6 7.26531 6 6.99995C6 6.73458 6.10542 6.48009 6.29306 6.29245C6.4807 6.1048 6.73519 5.99939 7.00056 5.99939C7.26592 5.99939 7.52042 6.1048 7.70806 6.29245L16.0006 14.5862L24.2931 6.29245C24.4807 6.10481 24.7352 5.99939 25.0006 5.99939C25.2659 5.99939 25.5204 6.1048 25.7081 6.29245C25.8957 6.48009 26.0011 6.73458 26.0011 6.99995C26.0011 7.26531 25.8957 7.5198 25.7081 7.70745L17.4143 15.9999L25.7081 24.2924Z" fill="#343330"/>
</svg>
